STARTFONT 2.1
FONT -classic-rockfont-medium-R-Normal--8-80-75-75-p-48-ISO10646-1
SIZE 8 75 75
FONTBOUNDINGBOX 9 8 0 0
STARTPROPERTIES 19
FONT_NAME "rockfontmedium"
FONT_ASCENT 8
FONT_DESCENT 0
QUAD_WIDTH 8
CAP_HEIGHT 7
FAMILY_NAME "rockfont"
FOUNDRY "classic"
WEIGHT_NAME "medium"
PIXEL_SIZE 8
POINT_SIZE 80
RESOLUTION 75
SPACING "p"
AVERAGE_WIDTH 48
FULL_NAME "rockfont medium"
COPYRIGHT "by Jens Arnold 09/2008 V2.2, based on work by Uwe Freese"
_GBDFED_INFO "Edited with gbdfed 1.4."
DEFAULT_CHAR 0
CHARSET_REGISTRY "ISO10646"
CHARSET_ENCODING "1"
ENDPROPERTIES
CHARS 491
STARTCHAR <control>
ENCODING 0
SWIDTH 720 0
DWIDTH 6 0
BBX 6 7 1 1
BITMAP
A8
00
88
00
88
00
A8
ENDCHAR
STARTCHAR SPACE
ENCODING 32
SWIDTH 480 0
DWIDTH 4 0
BBX 0 0 0 0
BITMAP
ENDCHAR
STARTCHAR EXCLAMATION MARK
ENCODING 33
SWIDTH 240 0
DWIDTH 2 0
BBX 1 7 1 1
BITMAP
80
80
80
80
80
00
80
ENDCHAR
STARTCHAR QUOTATION MARK
ENCODING 34
SWIDTH 480 0
DWIDTH 4 0
BBX 3 3 1 5
BITMAP
A0
A0
A0
ENDCHAR
STARTCHAR NUMBER SIGN
ENCODING 35
SWIDTH 720 0
DWIDTH 6 0
BBX 5 6 1 1
BITMAP
50
F8
50
50
F8
50
ENDCHAR
STARTCHAR DOLLAR SIGN
ENCODING 36
SWIDTH 720 0
DWIDTH 6 0
BBX 5 7 1 1
BITMAP
20
78
A0
70
28
F0
20
ENDCHAR
STARTCHAR PERCENT SIGN
ENCODING 37
SWIDTH 720 0
DWIDTH 6 0
BBX 5 7 1 1
BITMAP
C0
C8
10
20
40
98
18
ENDCHAR
STARTCHAR AMPERSAND
ENCODING 38
SWIDTH 720 0
DWIDTH 6 0
BBX 5 7 1 1
BITMAP
60
90
A0
40
A8
90
68
ENDCHAR
STARTCHAR APOSTROPHE
ENCODING 39
SWIDTH 240 0
DWIDTH 2 0
BBX 1 3 1 5
BITMAP
80
80
80
ENDCHAR
STARTCHAR LEFT PARENTHESIS
ENCODING 40
SWIDTH 360 0
DWIDTH 3 0
BBX 2 7 1 1
BITMAP
40
80
80
80
80
80
40
ENDCHAR
STARTCHAR RIGHT PARENTHESIS
ENCODING 41
SWIDTH 360 0
DWIDTH 3 0
BBX 2 7 1 1
BITMAP
80
40
40
40
40
40
80
ENDCHAR
STARTCHAR ASTERISK
ENCODING 42
SWIDTH 720 0
DWIDTH 6 0
BBX 5 5 1 1
BITMAP
50
20
F8
20
50
ENDCHAR
STARTCHAR PLUS SIGN
ENCODING 43
SWIDTH 720 0
DWIDTH 6 0
BBX 5 5 1 1
BITMAP
20
20
F8
20
20
ENDCHAR
STARTCHAR COMMA
ENCODING 44
SWIDTH 360 0
DWIDTH 3 0
BBX 2 3 1 0
BITMAP
40
40
80
ENDCHAR
STARTCHAR HYPHEN-MINUS
ENCODING 45
SWIDTH 720 0
DWIDTH 6 0
BBX 5 1 1 3
BITMAP
F8
ENDCHAR
STARTCHAR FULL STOP
ENCODING 46
SWIDTH 240 0
DWIDTH 2 0
BBX 1 1 1 1
BITMAP
80
ENDCHAR
STARTCHAR SOLIDUS
ENCODING 47
SWIDTH 600 0
DWIDTH 5 0
BBX 4 8 1 0
BITMAP
10
10
20
20
40
40
80
80
ENDCHAR
STARTCHAR DIGIT ZERO
ENCODING 48
SWIDTH 600 0
DWIDTH 5 0
BBX 4 7 1 1
BITMAP
60
90
B0
D0
90
90
60
ENDCHAR
STARTCHAR DIGIT ONE
ENCODING 49
SWIDTH 600 0
DWIDTH 5 0
BBX 3 7 1 1
BITMAP
20
60
A0
20
20
20
20
ENDCHAR
STARTCHAR DIGIT TWO
ENCODING 50
SWIDTH 600 0
DWIDTH 5 0
BBX 4 7 1 1
BITMAP
60
90
10
60
80
80
F0
ENDCHAR
STARTCHAR DIGIT THREE
ENCODING 51
SWIDTH 600 0
DWIDTH 5 0
BBX 4 7 1 1
BITMAP
60
90
10
60
10
90
60
ENDCHAR
STARTCHAR DIGIT FOUR
ENCODING 52
SWIDTH 600 0
DWIDTH 5 0
BBX 4 7 1 1
BITMAP
20
60
A0
A0
F0
20
20
ENDCHAR
STARTCHAR DIGIT FIVE
ENCODING 53
SWIDTH 600 0
DWIDTH 5 0
BBX 4 7 1 1
BITMAP
F0
80
E0
90
10
90
60
ENDCHAR
STARTCHAR DIGIT SIX
ENCODING 54
SWIDTH 600 0
DWIDTH 5 0
BBX 4 7 1 1
BITMAP
60
90
80
E0
90
90
60
ENDCHAR
STARTCHAR DIGIT SEVEN
ENCODING 55
SWIDTH 600 0
DWIDTH 5 0
BBX 4 7 1 1
BITMAP
F0
10
10
20
20
40
40
ENDCHAR
STARTCHAR DIGIT EIGHT
ENCODING 56
SWIDTH 600 0
DWIDTH 5 0
BBX 4 7 1 1
BITMAP
60
90
90
60
90
90
60
ENDCHAR
STARTCHAR DIGIT NINE
ENCODING 57
SWIDTH 600 0
DWIDTH 5 0
BBX 4 7 1 1
BITMAP
60
90
90
70
10
90
60
ENDCHAR
STARTCHAR COLON
ENCODING 58
SWIDTH 240 0
DWIDTH 2 0
BBX 1 5 1 1
BITMAP
80
00
00
00
80
ENDCHAR
STARTCHAR SEMICOLON
ENCODING 59
SWIDTH 360 0
DWIDTH 3 0
BBX 2 6 1 0
BITMAP
40
00
00
40
40
80
ENDCHAR
STARTCHAR LESS-THAN SIGN
ENCODING 60
SWIDTH 480 0
DWIDTH 4 0
BBX 3 5 1 1
BITMAP
20
40
80
40
20
ENDCHAR
STARTCHAR EQUALS SIGN
ENCODING 61
SWIDTH 600 0
DWIDTH 5 0
BBX 4 3 1 2
BITMAP
F0
00
F0
ENDCHAR
STARTCHAR GREATER-THAN SIGN
ENCODING 62
SWIDTH 480 0
DWIDTH 4 0
BBX 3 5 1 1
BITMAP
80
40
20
40
80
ENDCHAR
STARTCHAR QUESTION MARK
ENCODING 63
SWIDTH 600 0
DWIDTH 5 0
BBX 4 7 1 1
BITMAP
60
90
10
60
40
00
40
ENDCHAR
STARTCHAR COMMERCIAL AT
ENCODING 64
SWIDTH 720 0
DWIDTH 6 0
BBX 5 6 1 1
BITMAP
70
88
B8
B0
80
70
ENDCHAR
STARTCHAR LATIN CAPITAL LETTER A
ENCODING 65
SWIDTH 600 0
DWIDTH 5 0
BBX 4 7 1 1
BITMAP
60
90
90
F0
90
90
90
ENDCHAR
STARTCHAR LATIN CAPITAL LETTER B
ENCODING 66
SWIDTH 600 0
DWIDTH 5 0
BBX 4 7 1 1
BITMAP
E0
90
90
E0
90
90
E0
ENDCHAR
STARTCHAR LATIN CAPITAL LETTER C
ENCODING 67
SWIDTH 600 0
DWIDTH 5 0
BBX 4 7 1 1
BITMAP
60
90
80
80
80
90
60
ENDCHAR
STARTCHAR LATIN CAPITAL LETTER D
ENCODING 68
SWIDTH 600 0
DWIDTH 5 0
BBX 4 7 1 1
BITMAP
E0
90
90
90
90
90
E0
ENDCHAR
STARTCHAR LATIN CAPITAL LETTER E
ENCODING 69
SWIDTH 600 0
DWIDTH 5 0
BBX 4 7 1 1
BITMAP
F0
80
80
E0
80
80
F0
ENDCHAR
STARTCHAR LATIN CAPITAL LETTER F
ENCODING 70
SWIDTH 600 0
DWIDTH 5 0
BBX 4 7 1 1
BITMAP
F0
80
80
E0
80
80
80
ENDCHAR
STARTCHAR LATIN CAPITAL LETTER G
ENCODING 71
SWIDTH 600 0
DWIDTH 5 0
BBX 4 7 1 1
BITMAP
70
80
80
B0
90
90
70
ENDCHAR
STARTCHAR LATIN CAPITAL LETTER H
ENCODING 72
SWIDTH 600 0
DWIDTH 5 0
BBX 4 7 1 1
BITMAP
90
90
90
F0
90
90
90
ENDCHAR
STARTCHAR LATIN CAPITAL LETTER I
ENCODING 73
SWIDTH 480 0
DWIDTH 4 0
BBX 3 7 1 1
BITMAP
E0
40
40
40
40
40
E0
ENDCHAR
STARTCHAR LATIN CAPITAL LETTER J
ENCODING 74
SWIDTH 600 0
DWIDTH 5 0
BBX 4 7 1 1
BITMAP
10
10
10
10
90
90
60
ENDCHAR
STARTCHAR LATIN CAPITAL LETTER K
ENCODING 75
SWIDTH 600 0
DWIDTH 5 0
BBX 4 7 1 1
BITMAP
90
90
A0
C0
A0
90
90
ENDCHAR
STARTCHAR LATIN CAPITAL LETTER L
ENCODING 76
SWIDTH 600 0
DWIDTH 5 0
BBX 4 7 1 1
BITMAP
80
80
80
80
80
80
F0
ENDCHAR
STARTCHAR LATIN CAPITAL LETTER M
ENCODING 77
SWIDTH 720 0
DWIDTH 6 0
BBX 5 7 1 1
BITMAP
88
D8
D8
A8
A8
88
88
ENDCHAR
STARTCHAR LATIN CAPITAL LETTER N
ENCODING 78
SWIDTH 600 0
DWIDTH 5 0
BBX 4 7 1 1
BITMAP
90
D0
D0
B0
B0
90
90
ENDCHAR
STARTCHAR LATIN CAPITAL LETTER O
ENCODING 79
SWIDTH 600 0
DWIDTH 5 0
BBX 4 7 1 1
BITMAP
60
90
90
90
90
90
60
ENDCHAR
STARTCHAR LATIN CAPITAL LETTER P
ENCODING 80
SWIDTH 600 0
DWIDTH 5 0
BBX 4 7 1 1
BITMAP
E0
90
90
E0
80
80
80
ENDCHAR
STARTCHAR LATIN CAPITAL LETTER Q
ENCODING 81
SWIDTH 720 0
DWIDTH 6 0
BBX 5 7 1 1
BITMAP
60
90
90
90
B0
90
68
ENDCHAR
STARTCHAR LATIN CAPITAL LETTER R
ENCODING 82
SWIDTH 600 0
DWIDTH 5 0
BBX 4 7 1 1
BITMAP
E0
90
90
E0
A0
90
90
ENDCHAR
STARTCHAR LATIN CAPITAL LETTER S
ENCODING 83
SWIDTH 600 0
DWIDTH 5 0
BBX 4 7 1 1
BITMAP
60
90
80
60
10
90
60
ENDCHAR
STARTCHAR LATIN CAPITAL LETTER T
ENCODING 84
SWIDTH 720 0
DWIDTH 6 0
BBX 5 7 1 1
BITMAP
F8
20
20
20
20
20
20
ENDCHAR
STARTCHAR LATIN CAPITAL LETTER U
ENCODING 85
SWIDTH 600 0
DWIDTH 5 0
BBX 4 7 1 1
BITMAP
90
90
90
90
90
90
60
ENDCHAR
STARTCHAR LATIN CAPITAL LETTER V
ENCODING 86
SWIDTH 720 0
DWIDTH 6 0
BBX 5 7 1 1
BITMAP
88
88
88
88
50
50
20
ENDCHAR
STARTCHAR LATIN CAPITAL LETTER W
ENCODING 87
SWIDTH 720 0
DWIDTH 6 0
BBX 5 7 1 1
BITMAP
88
88
88
A8
A8
A8
50
ENDCHAR
STARTCHAR LATIN CAPITAL LETTER X
ENCODING 88
SWIDTH 720 0
DWIDTH 6 0
BBX 5 7 1 1
BITMAP
88
88
50
20
50
88
88
ENDCHAR
STARTCHAR LATIN CAPITAL LETTER Y
ENCODING 89
SWIDTH 720 0
DWIDTH 6 0
BBX 5 7 1 1
BITMAP
88
88
88
50
20
20
20
ENDCHAR
STARTCHAR LATIN CAPITAL LETTER Z
ENCODING 90
SWIDTH 720 0
DWIDTH 6 0
BBX 5 7 1 1
BITMAP
F8
08
10
20
40
80
F8
ENDCHAR
STARTCHAR LEFT SQUARE BRACKET
ENCODING 91
SWIDTH 360 0
DWIDTH 3 0
BBX 2 7 1 1
BITMAP
C0
80
80
80
80
80
C0
ENDCHAR
STARTCHAR REVERSE SOLIDUS
ENCODING 92
SWIDTH 600 0
DWIDTH 5 0
BBX 4 8 1 0
BITMAP
80
80
40
40
20
20
10
10
ENDCHAR
STARTCHAR RIGHT SQUARE BRACKET
ENCODING 93
SWIDTH 360 0
DWIDTH 3 0
BBX 2 7 1 1
BITMAP
C0
40
40
40
40
40
C0
ENDCHAR
STARTCHAR CIRCUMFLEX ACCENT
ENCODING 94
SWIDTH 720 0
DWIDTH 6 0
BBX 5 3 1 5
BITMAP
20
50
88
ENDCHAR
STARTCHAR LOW LINE
ENCODING 95
SWIDTH 720 0
DWIDTH 6 0
BBX 5 1 1 0
BITMAP
F8
ENDCHAR
STARTCHAR GRAVE ACCENT
ENCODING 96
SWIDTH 360 0
DWIDTH 3 0
BBX 2 3 1 5
BITMAP
80
80
40
ENDCHAR
STARTCHAR LATIN SMALL LETTER A
ENCODING 97
SWIDTH 600 0
DWIDTH 5 0
BBX 4 5 1 1
BITMAP
60
10
70
90
70
ENDCHAR
STARTCHAR LATIN SMALL LETTER B
ENCODING 98
SWIDTH 600 0
DWIDTH 5 0
BBX 4 7 1 1
BITMAP
80
80
E0
90
90
90
E0
ENDCHAR
STARTCHAR LATIN SMALL LETTER C
ENCODING 99
SWIDTH 480 0
DWIDTH 4 0
BBX 3 5 1 1
BITMAP
60
80
80
80
60
ENDCHAR
STARTCHAR LATIN SMALL LETTER D
ENCODING 100
SWIDTH 600 0
DWIDTH 5 0
BBX 4 7 1 1
BITMAP
10
10
70
90
90
90
70
ENDCHAR
STARTCHAR LATIN SMALL LETTER E
ENCODING 101
SWIDTH 600 0
DWIDTH 5 0
BBX 4 5 1 1
BITMAP
60
90
F0
80
70
ENDCHAR
STARTCHAR LATIN SMALL LETTER F
ENCODING 102
SWIDTH 600 0
DWIDTH 5 0
BBX 4 7 1 1
BITMAP
30
40
E0
40
40
40
40
ENDCHAR
STARTCHAR LATIN SMALL LETTER G
ENCODING 103
SWIDTH 600 0
DWIDTH 5 0
BBX 4 6 1 0
BITMAP
70
90
90
70
10
60
ENDCHAR
STARTCHAR LATIN SMALL LETTER H
ENCODING 104
SWIDTH 600 0
DWIDTH 5 0
BBX 4 7 1 1
BITMAP
80
80
E0
90
90
90
90
ENDCHAR
STARTCHAR LATIN SMALL LETTER I
ENCODING 105
SWIDTH 360 0
DWIDTH 3 0
BBX 2 7 1 1
BITMAP
80
00
80
80
80
80
40
ENDCHAR
STARTCHAR LATIN SMALL LETTER J
ENCODING 106
SWIDTH 480 0
DWIDTH 4 0
BBX 3 8 1 0
BITMAP
20
00
20
20
20
20
A0
40
ENDCHAR
STARTCHAR LATIN SMALL LETTER K
ENCODING 107
SWIDTH 600 0
DWIDTH 5 0
BBX 4 7 1 1
BITMAP
80
80
90
A0
C0
A0
90
ENDCHAR
STARTCHAR LATIN SMALL LETTER L
ENCODING 108
SWIDTH 360 0
DWIDTH 3 0
BBX 2 7 1 1
BITMAP
80
80
80
80
80
80
40
ENDCHAR
STARTCHAR LATIN SMALL LETTER M
ENCODING 109
SWIDTH 720 0
DWIDTH 6 0
BBX 5 5 1 1
BITMAP
D0
A8
A8
A8
A8
ENDCHAR
STARTCHAR LATIN SMALL LETTER N
ENCODING 110
SWIDTH 600 0
DWIDTH 5 0
BBX 4 5 1 1
BITMAP
E0
90
90
90
90
ENDCHAR
STARTCHAR LATIN SMALL LETTER O
ENCODING 111
SWIDTH 600 0
DWIDTH 5 0
BBX 4 5 1 1
BITMAP
60
90
90
90
60
ENDCHAR
STARTCHAR LATIN SMALL LETTER P
ENCODING 112
SWIDTH 600 0
DWIDTH 5 0
BBX 4 6 1 0
BITMAP
E0
90
90
E0
80
80
ENDCHAR
STARTCHAR LATIN SMALL LETTER Q
ENCODING 113
SWIDTH 600 0
DWIDTH 5 0
BBX 4 6 1 0
BITMAP
70
90
90
70
10
10
ENDCHAR
STARTCHAR LATIN SMALL LETTER R
ENCODING 114
SWIDTH 480 0
DWIDTH 4 0
BBX 3 5 1 1
BITMAP
A0
C0
80
80
80
ENDCHAR
STARTCHAR LATIN SMALL LETTER S
ENCODING 115
SWIDTH 600 0
DWIDTH 5 0
BBX 4 5 1 1
BITMAP
60
80
60
10
E0
ENDCHAR
STARTCHAR LATIN SMALL LETTER T
ENCODING 116
SWIDTH 480 0
DWIDTH 4 0
BBX 3 7 1 1
BITMAP
40
40
E0
40
40
40
20
ENDCHAR
STARTCHAR LATIN SMALL LETTER U
ENCODING 117
SWIDTH 600 0
DWIDTH 5 0
BBX 4 5 1 1
BITMAP
90
90
90
90
70
ENDCHAR
STARTCHAR LATIN SMALL LETTER V
ENCODING 118
SWIDTH 720 0
DWIDTH 6 0
BBX 5 5 1 1
BITMAP
88
88
50
50
20
ENDCHAR
STARTCHAR LATIN SMALL LETTER W
ENCODING 119
SWIDTH 720 0
DWIDTH 6 0
BBX 5 5 1 1
BITMAP
88
88
A8
A8
50
ENDCHAR
STARTCHAR LATIN SMALL LETTER X
ENCODING 120
SWIDTH 480 0
DWIDTH 4 0
BBX 3 5 1 1
BITMAP
A0
A0
40
A0
A0
ENDCHAR
STARTCHAR LATIN SMALL LETTER Y
ENCODING 121
SWIDTH 600 0
DWIDTH 5 0
BBX 4 6 1 0
BITMAP
90
90
90
70
10
60
ENDCHAR
STARTCHAR LATIN SMALL LETTER Z
ENCODING 122
SWIDTH 480 0
DWIDTH 4 0
BBX 3 5 1 1
BITMAP
E0
20
40
80
E0
ENDCHAR
STARTCHAR LEFT CURLY BRACKET
ENCODING 123
SWIDTH 480 0
DWIDTH 4 0
BBX 3 7 1 1
BITMAP
20
40
40
80
40
40
20
ENDCHAR
STARTCHAR VERTICAL LINE
ENCODING 124
SWIDTH 240 0
DWIDTH 2 0
BBX 1 8 1 0
BITMAP
80
80
80
80
80
80
80
80
ENDCHAR
STARTCHAR RIGHT CURLY BRACKET
ENCODING 125
SWIDTH 480 0
DWIDTH 4 0
BBX 3 7 1 1
BITMAP
80
40
40
20
40
40
80
ENDCHAR
STARTCHAR TILDE
ENCODING 126
SWIDTH 720 0
DWIDTH 6 0
BBX 5 2 1 6
BITMAP
68
B0
ENDCHAR
STARTCHAR NO-BREAK SPACE
ENCODING 160
SWIDTH 480 0
DWIDTH 4 0
BBX 0 0 0 0
BITMAP
ENDCHAR
STARTCHAR INVERTED EXCLAMATION MARK
ENCODING 161
SWIDTH 240 0
DWIDTH 2 0
BBX 1 7 1 1
BITMAP
80
00
80
80
80
80
80
ENDCHAR
STARTCHAR CENT SIGN
ENCODING 162
SWIDTH 720 0
DWIDTH 6 0
BBX 5 7 1 0
BITMAP
20
70
A8
A0
A8
70
20
ENDCHAR
STARTCHAR POUND SIGN
ENCODING 163
SWIDTH 720 0
DWIDTH 6 0
BBX 5 7 1 1
BITMAP
30
48
40
F0
40
40
F8
ENDCHAR
STARTCHAR CURRENCY SIGN
ENCODING 164
SWIDTH 600 0
DWIDTH 5 0
BBX 4 7 1 1
BITMAP
30
40
E0
40
E0
40
30
ENDCHAR
STARTCHAR YEN SIGN
ENCODING 165
SWIDTH 720 0
DWIDTH 6 0
BBX 5 7 1 1
BITMAP
88
88
50
20
70
20
20
ENDCHAR
STARTCHAR BROKEN BAR
ENCODING 166
SWIDTH 240 0
DWIDTH 2 0
BBX 1 7 1 1
BITMAP
80
80
80
00
80
80
80
ENDCHAR
STARTCHAR SECTION SIGN
ENCODING 167
SWIDTH 600 0
DWIDTH 5 0
BBX 4 7 1 1
BITMAP
70
80
60
90
60
10
E0
ENDCHAR
STARTCHAR DIAERESIS
ENCODING 168
SWIDTH 600 0
DWIDTH 5 0
BBX 4 1 1 7
BITMAP
90
ENDCHAR
STARTCHAR COPYRIGHT SIGN
ENCODING 169
SWIDTH 840 0
DWIDTH 7 0
BBX 6 7 1 1
BITMAP
78
84
B4
A4
B4
84
78
ENDCHAR
STARTCHAR FEMININE ORDINAL INDICATOR
ENCODING 170
SWIDTH 480 0
DWIDTH 4 0
BBX 3 5 1 3
BITMAP
60
A0
E0
00
E0
ENDCHAR
STARTCHAR LEFT-POINTING DOUBLE ANGLE QUOTATION MARK
ENCODING 171
SWIDTH 720 0
DWIDTH 6 0
BBX 5 5 1 1
BITMAP
28
50
A0
50
28
ENDCHAR
STARTCHAR NOT SIGN
ENCODING 172
SWIDTH 600 0
DWIDTH 5 0
BBX 4 2 1 6
BITMAP
F0
10
ENDCHAR
STARTCHAR SOFT HYPHEN
ENCODING 173
SWIDTH 720 0
DWIDTH 6 0
BBX 5 1 1 3
BITMAP
F8
ENDCHAR
STARTCHAR REGISTERED SIGN
ENCODING 174
SWIDTH 840 0
DWIDTH 7 0
BBX 6 7 1 1
BITMAP
78
84
B4
B4
AC
84
78
ENDCHAR
STARTCHAR MACRON
ENCODING 175
SWIDTH 720 0
DWIDTH 6 0
BBX 5 1 1 7
BITMAP
F8
ENDCHAR
STARTCHAR DEGREE SIGN
ENCODING 176
SWIDTH 480 0
DWIDTH 4 0
BBX 3 3 1 5
BITMAP
40
A0
40
ENDCHAR
STARTCHAR PLUS-MINUS SIGN
ENCODING 177
SWIDTH 480 0
DWIDTH 4 0
BBX 3 5 1 1
BITMAP
40
E0
40
00
E0
ENDCHAR
STARTCHAR SUPERSCRIPT TWO
ENCODING 178
SWIDTH 600 0
DWIDTH 5 0
BBX 3 4 1 4
BITMAP
C0
20
40
E0
ENDCHAR
STARTCHAR SUPERSCRIPT THREE
ENCODING 179
SWIDTH 480 0
DWIDTH 4 0
BBX 3 4 1 4
BITMAP
E0
40
20
C0
ENDCHAR
STARTCHAR ACUTE ACCENT
ENCODING 180
SWIDTH 360 0
DWIDTH 3 0
BBX 2 2 1 6
BITMAP
40
80
ENDCHAR
STARTCHAR MICRO SIGN
ENCODING 181
SWIDTH 600 0
DWIDTH 5 0
BBX 4 6 1 0
BITMAP
90
90
90
D0
A0
80
ENDCHAR
STARTCHAR PILCROW SIGN
ENCODING 182
SWIDTH 720 0
DWIDTH 6 0
BBX 5 8 1 0
BITMAP
78
E8
E8
68
28
28
28
28
ENDCHAR
STARTCHAR MIDDLE DOT
ENCODING 183
SWIDTH 360 0
DWIDTH 3 0
BBX 2 2 1 3
BITMAP
C0
C0
ENDCHAR
STARTCHAR CEDILLA
ENCODING 184
SWIDTH 360 0
DWIDTH 3 0
BBX 2 2 1 0
BITMAP
40
80
ENDCHAR
STARTCHAR SUPERSCRIPT ONE
ENCODING 185
SWIDTH 360 0
DWIDTH 3 0
BBX 2 4 1 4
BITMAP
40
C0
40
40
ENDCHAR
STARTCHAR MASCULINE ORDINAL INDICATOR
ENCODING 186
SWIDTH 480 0
DWIDTH 4 0
BBX 3 5 1 3
BITMAP
40
A0
40
00
E0
ENDCHAR
STARTCHAR RIGHT-POINTING DOUBLE ANGLE QUOTATION MARK
ENCODING 187
SWIDTH 720 0
DWIDTH 6 0
BBX 5 5 1 1
BITMAP
A0
50
28
50
A0
ENDCHAR
STARTCHAR VULGAR FRACTION ONE QUARTER
ENCODING 188
SWIDTH 840 0
DWIDTH 7 0
BBX 6 7 1 1
BITMAP
44
C8
50
54
28
5C
84
ENDCHAR
STARTCHAR VULGAR FRACTION ONE HALF
ENCODING 189
SWIDTH 960 0
DWIDTH 8 0
BBX 7 7 1 1
BITMAP
44
C8
50
6C
22
44
8E
ENDCHAR
STARTCHAR VULGAR FRACTION THREE QUARTERS
ENCODING 190
SWIDTH 840 0
DWIDTH 7 0
BBX 6 7 1 1
BITMAP
E4
48
30
D4
28
5C
84
ENDCHAR
STARTCHAR INVERTED QUESTION MARK
ENCODING 191
SWIDTH 600 0
DWIDTH 5 0
BBX 4 7 1 1
BITMAP
20
00
20
60
80
90
60
ENDCHAR
STARTCHAR LATIN CAPITAL LETTER A WITH GRAVE
ENCODING 192
SWIDTH 600 0
DWIDTH 5 0
BBX 4 7 1 1
BITMAP
40
20
60
90
F0
90
90
ENDCHAR
STARTCHAR LATIN CAPITAL LETTER A WITH ACUTE
ENCODING 193
SWIDTH 600 0
DWIDTH 5 0
BBX 4 7 1 1
BITMAP
20
40
60
90
F0
90
90
ENDCHAR
STARTCHAR LATIN CAPITAL LETTER A WITH CIRCUMFLEX
ENCODING 194
SWIDTH 600 0
DWIDTH 5 0
BBX 4 7 1 1
BITMAP
60
90
60
90
F0
90
90
ENDCHAR
STARTCHAR LATIN CAPITAL LETTER A WITH TILDE
ENCODING 195
SWIDTH 600 0
DWIDTH 5 0
BBX 4 7 1 1
BITMAP
50
A0
60
90
F0
90
90
ENDCHAR
STARTCHAR LATIN CAPITAL LETTER A WITH DIAERESIS
ENCODING 196
SWIDTH 600 0
DWIDTH 5 0
BBX 4 7 1 1
BITMAP
90
60
90
90
F0
90
90
ENDCHAR
STARTCHAR LATIN CAPITAL LETTER A WITH RING ABOVE
ENCODING 197
SWIDTH 600 0
DWIDTH 5 0
BBX 4 7 1 1
BITMAP
60
90
60
90
F0
90
90
ENDCHAR
STARTCHAR LATIN CAPITAL LETTER AE
ENCODING 198
SWIDTH 960 0
DWIDTH 8 0
BBX 7 7 1 1
BITMAP
3E
50
50
7C
90
90
9E
ENDCHAR
STARTCHAR LATIN CAPITAL LETTER C WITH CEDILLA
ENCODING 199
SWIDTH 840 0
DWIDTH 7 0
BBX 4 8 1 0
BITMAP
60
90
80
80
90
60
20
40
ENDCHAR
STARTCHAR LATIN CAPITAL LETTER E WITH GRAVE
ENCODING 200
SWIDTH 600 0
DWIDTH 5 0
BBX 4 7 1 1
BITMAP
40
20
F0
80
E0
80
F0
ENDCHAR
STARTCHAR LATIN CAPITAL LETTER E WITH ACUTE
ENCODING 201
SWIDTH 600 0
DWIDTH 5 0
BBX 4 7 1 1
BITMAP
20
40
F0
80
E0
80
F0
ENDCHAR
STARTCHAR LATIN CAPITAL LETTER E WITH CIRCUMFLEX
ENCODING 202
SWIDTH 600 0
DWIDTH 5 0
BBX 4 7 1 1
BITMAP
40
A0
F0
80
E0
80
F0
ENDCHAR
STARTCHAR LATIN CAPITAL LETTER E WITH DIAERESIS
ENCODING 203
SWIDTH 600 0
DWIDTH 5 0
BBX 4 7 1 1
BITMAP
90
00
F0
80
E0
80
F0
ENDCHAR
STARTCHAR LATIN CAPITAL LETTER I WITH GRAVE
ENCODING 204
SWIDTH 480 0
DWIDTH 4 0
BBX 3 7 1 1
BITMAP
80
40
E0
40
40
40
E0
ENDCHAR
STARTCHAR LATIN CAPITAL LETTER I WITH ACUTE
ENCODING 205
SWIDTH 480 0
DWIDTH 4 0
BBX 3 7 1 1
BITMAP
20
40
E0
40
40
40
E0
ENDCHAR
STARTCHAR LATIN CAPITAL LETTER I WITH CIRCUMFLEX
ENCODING 206
SWIDTH 480 0
DWIDTH 4 0
BBX 3 7 1 1
BITMAP
40
A0
E0
40
40
40
E0
ENDCHAR
STARTCHAR LATIN CAPITAL LETTER I WITH DIAERESIS
ENCODING 207
SWIDTH 480 0
DWIDTH 4 0
BBX 3 7 1 1
BITMAP
A0
00
E0
40
40
40
E0
ENDCHAR
STARTCHAR LATIN CAPITAL LETTER ETH
ENCODING 208
SWIDTH 720 0
DWIDTH 6 0
BBX 5 7 1 1
BITMAP
70
48
48
E8
48
48
70
ENDCHAR
STARTCHAR LATIN CAPITAL LETTER N WITH TILDE
ENCODING 209
SWIDTH 600 0
DWIDTH 5 0
BBX 4 7 1 1
BITMAP
50
A0
90
D0
B0
90
90
ENDCHAR
STARTCHAR LATIN CAPITAL LETTER O WITH GRAVE
ENCODING 210
SWIDTH 600 0
DWIDTH 5 0
BBX 4 7 1 1
BITMAP
40
20
60
90
90
90
60
ENDCHAR
STARTCHAR LATIN CAPITAL LETTER O WITH ACUTE
ENCODING 211
SWIDTH 600 0
DWIDTH 5 0
BBX 4 7 1 1
BITMAP
20
40
60
90
90
90
60
ENDCHAR
STARTCHAR LATIN CAPITAL LETTER O WITH CIRCUMFLEX
ENCODING 212
SWIDTH 600 0
DWIDTH 5 0
BBX 4 7 1 1
BITMAP
60
90
60
90
90
90
60
ENDCHAR
STARTCHAR LATIN CAPITAL LETTER O WITH TILDE
ENCODING 213
SWIDTH 600 0
DWIDTH 5 0
BBX 4 7 1 1
BITMAP
50
A0
60
90
90
90
60
ENDCHAR
STARTCHAR LATIN CAPITAL LETTER O WITH DIAERESIS
ENCODING 214
SWIDTH 600 0
DWIDTH 5 0
BBX 4 7 1 1
BITMAP
90
60
90
90
90
90
60
ENDCHAR
STARTCHAR MULTIPLICATION SIGN
ENCODING 215
SWIDTH 720 0
DWIDTH 6 0
BBX 5 5 1 1
BITMAP
88
50
20
50
88
ENDCHAR
STARTCHAR LATIN CAPITAL LETTER O WITH STROKE
ENCODING 216
SWIDTH 720 0
DWIDTH 6 0
BBX 5 8 1 0
BITMAP
08
70
98
A8
A8
C8
70
80
ENDCHAR
STARTCHAR LATIN CAPITAL LETTER U WITH GRAVE
ENCODING 217
SWIDTH 600 0
DWIDTH 5 0
BBX 4 7 1 1
BITMAP
40
20
90
90
90
90
60
ENDCHAR
STARTCHAR LATIN CAPITAL LETTER U WITH ACUTE
ENCODING 218
SWIDTH 600 0
DWIDTH 5 0
BBX 4 7 1 1
BITMAP
20
40
90
90
90
90
60
ENDCHAR
STARTCHAR LATIN CAPITAL LETTER U WITH CIRCUMFLEX
ENCODING 219
SWIDTH 600 0
DWIDTH 5 0
BBX 4 7 1 1
BITMAP
60
90
00
90
90
90
60
ENDCHAR
STARTCHAR LATIN CAPITAL LETTER U WITH DIAERESIS
ENCODING 220
SWIDTH 600 0
DWIDTH 5 0
BBX 4 7 1 1
BITMAP
90
00
90
90
90
90
60
ENDCHAR
STARTCHAR LATIN CAPITAL LETTER Y WITH ACUTE
ENCODING 221
SWIDTH 720 0
DWIDTH 6 0
BBX 5 7 1 1
BITMAP
10
20
88
88
50
20
20
ENDCHAR
STARTCHAR LATIN CAPITAL LETTER THORN
ENCODING 222
SWIDTH 600 0
DWIDTH 5 0
BBX 4 7 1 1
BITMAP
80
E0
90
90
E0
80
80
ENDCHAR
STARTCHAR LATIN SMALL LETTER SHARP S
ENCODING 223
SWIDTH 600 0
DWIDTH 5 0
BBX 4 8 1 0
BITMAP
60
90
90
A0
90
90
A0
80
ENDCHAR
STARTCHAR LATIN SMALL LETTER A WITH GRAVE
ENCODING 224
SWIDTH 600 0
DWIDTH 5 0
BBX 4 7 1 1
BITMAP
40
20
60
10
70
90
70
ENDCHAR
STARTCHAR LATIN SMALL LETTER A WITH ACUTE
ENCODING 225
SWIDTH 600 0
DWIDTH 5 0
BBX 4 7 1 1
BITMAP
20
40
60
10
70
90
70
ENDCHAR
STARTCHAR LATIN SMALL LETTER A WITH CIRCUMFLEX
ENCODING 226
SWIDTH 600 0
DWIDTH 5 0
BBX 4 7 1 1
BITMAP
20
50
60
10
70
90
70
ENDCHAR
STARTCHAR LATIN SMALL LETTER A WITH TILDE
ENCODING 227
SWIDTH 600 0
DWIDTH 5 0
BBX 4 7 1 1
BITMAP
50
A0
60
10
70
90
70
ENDCHAR
STARTCHAR LATIN SMALL LETTER A WITH DIAERESIS
ENCODING 228
SWIDTH 600 0
DWIDTH 5 0
BBX 4 7 1 1
BITMAP
50
00
60
10
70
90
70
ENDCHAR
STARTCHAR LATIN SMALL LETTER A WITH RING ABOVE
ENCODING 229
SWIDTH 600 0
DWIDTH 5 0
BBX 4 7 1 1
BITMAP
60
90
60
10
70
90
70
ENDCHAR
STARTCHAR LATIN SMALL LETTER AE
ENCODING 230
SWIDTH 960 0
DWIDTH 8 0
BBX 7 5 1 1
BITMAP
6C
12
7C
90
7C
ENDCHAR
STARTCHAR LATIN SMALL LETTER C WITH CEDILLA
ENCODING 231
SWIDTH 600 0
DWIDTH 5 0
BBX 4 6 1 0
BITMAP
70
80
80
70
20
40
ENDCHAR
STARTCHAR LATIN SMALL LETTER E WITH GRAVE
ENCODING 232
SWIDTH 600 0
DWIDTH 5 0
BBX 4 7 1 1
BITMAP
40
20
60
90
F0
80
70
ENDCHAR
STARTCHAR LATIN SMALL LETTER E WITH ACUTE
ENCODING 233
SWIDTH 600 0
DWIDTH 5 0
BBX 4 7 1 1
BITMAP
20
40
60
90
F0
80
70
ENDCHAR
STARTCHAR LATIN SMALL LETTER E WITH CIRCUMFLEX
ENCODING 234
SWIDTH 600 0
DWIDTH 5 0
BBX 4 7 1 1
BITMAP
20
50
60
90
F0
80
70
ENDCHAR
STARTCHAR LATIN SMALL LETTER E WITH DIAERESIS
ENCODING 235
SWIDTH 600 0
DWIDTH 5 0
BBX 4 7 1 1
BITMAP
90
00
60
90
F0
80
70
ENDCHAR
STARTCHAR LATIN SMALL LETTER I WITH GRAVE
ENCODING 236
SWIDTH 360 0
DWIDTH 3 0
BBX 2 7 1 1
BITMAP
80
40
00
80
80
80
40
ENDCHAR
STARTCHAR LATIN SMALL LETTER I WITH ACUTE
ENCODING 237
SWIDTH 360 0
DWIDTH 3 0
BBX 2 7 1 1
BITMAP
40
80
00
80
80
80
40
ENDCHAR
STARTCHAR LATIN SMALL LETTER I WITH CIRCUMFLEX
ENCODING 238
SWIDTH 480 0
DWIDTH 4 0
BBX 3 7 1 1
BITMAP
40
A0
00
40
40
40
20
ENDCHAR
STARTCHAR LATIN SMALL LETTER I WITH DIAERESIS
ENCODING 239
SWIDTH 480 0
DWIDTH 4 0
BBX 3 7 1 1
BITMAP
A0
00
40
40
40
40
20
ENDCHAR
STARTCHAR LATIN SMALL LETTER ETH
ENCODING 240
SWIDTH 600 0
DWIDTH 5 0
BBX 4 7 1 1
BITMAP
A0
C0
20
70
90
90
60
ENDCHAR
STARTCHAR LATIN SMALL LETTER N WITH TILDE
ENCODING 241
SWIDTH 600 0
DWIDTH 5 0
BBX 4 7 1 1
BITMAP
50
A0
00
E0
90
90
90
ENDCHAR
STARTCHAR LATIN SMALL LETTER O WITH GRAVE
ENCODING 242
SWIDTH 600 0
DWIDTH 5 0
BBX 4 7 1 1
BITMAP
40
20
00
60
90
90
60
ENDCHAR
STARTCHAR LATIN SMALL LETTER O WITH ACUTE
ENCODING 243
SWIDTH 600 0
DWIDTH 5 0
BBX 4 7 1 1
BITMAP
20
40
00
60
90
90
60
ENDCHAR
STARTCHAR LATIN SMALL LETTER O WITH CIRCUMFLEX
ENCODING 244
SWIDTH 600 0
DWIDTH 5 0
BBX 4 7 1 1
BITMAP
20
50
00
60
90
90
60
ENDCHAR
STARTCHAR LATIN SMALL LETTER O WITH TILDE
ENCODING 245
SWIDTH 600 0
DWIDTH 5 0
BBX 4 7 1 1
BITMAP
50
A0
00
60
90
90
60
ENDCHAR
STARTCHAR LATIN SMALL LETTER O WITH DIAERESIS
ENCODING 246
SWIDTH 600 0
DWIDTH 5 0
BBX 4 7 1 1
BITMAP
90
00
60
90
90
90
60
ENDCHAR
STARTCHAR DIVISION SIGN
ENCODING 247
SWIDTH 720 0
DWIDTH 6 0
BBX 5 5 1 1
BITMAP
20
00
F8
00
20
ENDCHAR
STARTCHAR LATIN SMALL LETTER O WITH STROKE
ENCODING 248
SWIDTH 720 0
DWIDTH 6 0
BBX 5 7 1 0
BITMAP
08
70
98
A8
C8
70
80
ENDCHAR
STARTCHAR LATIN SMALL LETTER U WITH GRAVE
ENCODING 249
SWIDTH 600 0
DWIDTH 5 0
BBX 4 7 1 1
BITMAP
40
20
90
90
90
90
70
ENDCHAR
STARTCHAR LATIN SMALL LETTER U WITH ACUTE
ENCODING 250
SWIDTH 600 0
DWIDTH 5 0
BBX 4 7 1 1
BITMAP
20
40
90
90
90
90
70
ENDCHAR
STARTCHAR LATIN SMALL LETTER U WITH CIRCUMFLEX
ENCODING 251
SWIDTH 600 0
DWIDTH 5 0
BBX 4 7 1 1
BITMAP
20
50
00
90
90
90
70
ENDCHAR
STARTCHAR LATIN SMALL LETTER U WITH DIAERESIS
ENCODING 252
SWIDTH 600 0
DWIDTH 5 0
BBX 4 7 1 1
BITMAP
90
00
90
90
90
90
70
ENDCHAR
STARTCHAR LATIN SMALL LETTER Y WITH ACUTE
ENCODING 253
SWIDTH 600 0
DWIDTH 5 0
BBX 4 8 1 0
BITMAP
40
20
90
90
90
70
10
60
ENDCHAR
STARTCHAR LATIN SMALL LETTER THORN
ENCODING 254
SWIDTH 600 0
DWIDTH 5 0
BBX 4 7 1 0
BITMAP
80
E0
90
90
E0
80
80
ENDCHAR
STARTCHAR LATIN SMALL LETTER Y WITH DIAERESIS
ENCODING 255
SWIDTH 600 0
DWIDTH 5 0
BBX 4 8 1 0
BITMAP
90
00
90
90
90
70
10
60
ENDCHAR
STARTCHAR LATIN CAPITAL LETTER A WITH MACRON
ENCODING 256
SWIDTH 600 0
DWIDTH 5 0
BBX 4 7 1 1
BITMAP
F0
00
60
90
F0
90
90
ENDCHAR
STARTCHAR LATIN SMALL LETTER A WITH MACRON
ENCODING 257
SWIDTH 600 0
DWIDTH 5 0
BBX 4 7 1 1
BITMAP
70
00
60
10
70
90
70
ENDCHAR
STARTCHAR LATIN CAPITAL LETTER A WITH BREVE
ENCODING 258
SWIDTH 600 0
DWIDTH 5 0
BBX 4 7 1 1
BITMAP
90
60
60
90
F0
90
90
ENDCHAR
STARTCHAR LATIN SMALL LETTER A WITH BREVE
ENCODING 259
SWIDTH 600 0
DWIDTH 5 0
BBX 4 7 1 1
BITMAP
50
20
60
10
70
90
70
ENDCHAR
STARTCHAR LATIN CAPITAL LETTER A WITH OGONEK
ENCODING 260
SWIDTH 600 0
DWIDTH 5 0
BBX 4 8 1 0
BITMAP
60
90
90
F0
90
90
20
30
ENDCHAR
STARTCHAR LATIN SMALL LETTER A WITH OGONEK
ENCODING 261
SWIDTH 600 0
DWIDTH 5 0
BBX 4 6 1 0
BITMAP
E0
70
90
70
20
30
ENDCHAR
STARTCHAR LATIN CAPITAL LETTER C WITH ACUTE
ENCODING 262
SWIDTH 600 0
DWIDTH 5 0
BBX 4 7 1 1
BITMAP
20
40
60
90
80
90
60
ENDCHAR
STARTCHAR LATIN SMALL LETTER C WITH ACUTE
ENCODING 263
SWIDTH 480 0
DWIDTH 4 0
BBX 3 7 1 1
BITMAP
20
40
60
80
80
80
60
ENDCHAR
STARTCHAR LATIN CAPITAL LETTER C WITH CIRCUMFLEX
ENCODING 264
SWIDTH 600 0
DWIDTH 5 0
BBX 4 7 1 1
BITMAP
60
90
60
90
80
90
60
ENDCHAR
STARTCHAR LATIN SMALL LETTER C WITH CIRCUMFLEX
ENCODING 265
SWIDTH 480 0
DWIDTH 4 0
BBX 3 7 1 1
BITMAP
40
A0
60
80
80
80
60
ENDCHAR
STARTCHAR LATIN CAPITAL LETTER C WITH DOT ABOVE
ENCODING 266
SWIDTH 600 0
DWIDTH 5 0
BBX 4 7 1 1
BITMAP
20
00
60
90
80
90
60
ENDCHAR
STARTCHAR LATIN SMALL LETTER C WITH DOT ABOVE
ENCODING 267
SWIDTH 480 0
DWIDTH 4 0
BBX 3 7 1 1
BITMAP
40
00
60
80
80
80
60
ENDCHAR
STARTCHAR LATIN CAPITAL LETTER C WITH CARON
ENCODING 268
SWIDTH 600 0
DWIDTH 5 0
BBX 4 7 1 1
BITMAP
90
60
60
90
80
90
60
ENDCHAR
STARTCHAR LATIN SMALL LETTER C WITH CARON
ENCODING 269
SWIDTH 480 0
DWIDTH 4 0
BBX 3 7 1 1
BITMAP
A0
40
60
80
80
80
60
ENDCHAR
STARTCHAR LATIN CAPITAL LETTER D WITH CARON
ENCODING 270
SWIDTH 600 0
DWIDTH 5 0
BBX 4 7 1 1
BITMAP
90
60
E0
90
90
90
E0
ENDCHAR
STARTCHAR LATIN SMALL LETTER D WITH CARON
ENCODING 271
SWIDTH 720 0
DWIDTH 6 0
BBX 5 7 1 1
BITMAP
28
28
68
A0
A0
A0
60
ENDCHAR
STARTCHAR LATIN CAPITAL LETTER D WITH STROKE
ENCODING 272
SWIDTH 720 0
DWIDTH 6 0
BBX 5 7 1 1
BITMAP
70
48
48
E8
48
48
70
ENDCHAR
STARTCHAR LATIN SMALL LETTER D WITH STROKE
ENCODING 273
SWIDTH 720 0
DWIDTH 6 0
BBX 5 7 1 1
BITMAP
10
38
10
70
90
90
70
ENDCHAR
STARTCHAR LATIN CAPITAL LETTER E WITH MACRON
ENCODING 274
SWIDTH 600 0
DWIDTH 5 0
BBX 4 7 1 1
BITMAP
E0
00
F0
80
E0
80
F0
ENDCHAR
STARTCHAR LATIN SMALL LETTER E WITH MACRON
ENCODING 275
SWIDTH 600 0
DWIDTH 5 0
BBX 4 7 1 1
BITMAP
70
00
60
90
F0
80
70
ENDCHAR
STARTCHAR LATIN CAPITAL LETTER E WITH BREVE
ENCODING 276
SWIDTH 600 0
DWIDTH 5 0
BBX 4 7 1 1
BITMAP
90
60
F0
80
E0
80
F0
ENDCHAR
STARTCHAR LATIN SMALL LETTER E WITH BREVE
ENCODING 277
SWIDTH 600 0
DWIDTH 5 0
BBX 4 7 1 1
BITMAP
50
20
60
90
F0
80
70
ENDCHAR
STARTCHAR LATIN CAPITAL LETTER E WITH DOT ABOVE
ENCODING 278
SWIDTH 600 0
DWIDTH 5 0
BBX 4 7 1 1
BITMAP
20
00
F0
80
E0
80
F0
ENDCHAR
STARTCHAR LATIN SMALL LETTER E WITH DOT ABOVE
ENCODING 279
SWIDTH 600 0
DWIDTH 5 0
BBX 4 7 1 1
BITMAP
20
00
60
90
F0
80
70
ENDCHAR
STARTCHAR LATIN CAPITAL LETTER E WITH OGONEK
ENCODING 280
SWIDTH 600 0
DWIDTH 5 0
BBX 4 8 1 0
BITMAP
F0
80
E0
80
80
F0
20
30
ENDCHAR
STARTCHAR LATIN SMALL LETTER E WITH OGONEK
ENCODING 281
SWIDTH 600 0
DWIDTH 5 0
BBX 4 6 1 0
BITMAP
60
F0
80
70
20
30
ENDCHAR
STARTCHAR LATIN CAPITAL LETTER E WITH CARON
ENCODING 282
SWIDTH 600 0
DWIDTH 5 0
BBX 4 7 1 1
BITMAP
90
60
F0
80
E0
80
F0
ENDCHAR
STARTCHAR LATIN SMALL LETTER E WITH CARON
ENCODING 283
SWIDTH 600 0
DWIDTH 5 0
BBX 4 7 1 1
BITMAP
50
20
60
90
F0
80
70
ENDCHAR
STARTCHAR LATIN CAPITAL LETTER G WITH CIRCUMFLEX
ENCODING 284
SWIDTH 600 0
DWIDTH 5 0
BBX 4 7 1 1
BITMAP
60
90
70
80
B0
90
70
ENDCHAR
STARTCHAR LATIN SMALL LETTER G WITH CIRCUMFLEX
ENCODING 285
SWIDTH 600 0
DWIDTH 5 0
BBX 4 8 1 0
BITMAP
20
50
70
90
90
70
10
60
ENDCHAR
STARTCHAR LATIN CAPITAL LETTER G WITH BREVE
ENCODING 286
SWIDTH 600 0
DWIDTH 5 0
BBX 4 7 1 1
BITMAP
90
60
70
80
B0
90
70
ENDCHAR
STARTCHAR LATIN SMALL LETTER G WITH BREVE
ENCODING 287
SWIDTH 600 0
DWIDTH 5 0
BBX 4 8 1 0
BITMAP
50
20
70
90
90
70
10
60
ENDCHAR
STARTCHAR LATIN CAPITAL LETTER G WITH DOT ABOVE
ENCODING 288
SWIDTH 600 0
DWIDTH 5 0
BBX 4 7 1 1
BITMAP
20
00
70
80
B0
90
70
ENDCHAR
STARTCHAR LATIN SMALL LETTER G WITH DOT ABOVE
ENCODING 289
SWIDTH 600 0
DWIDTH 5 0
BBX 4 8 1 0
BITMAP
20
00
70
90
90
70
10
60
ENDCHAR
STARTCHAR LATIN CAPITAL LETTER G WITH CEDILLA
ENCODING 290
SWIDTH 600 0
DWIDTH 5 0
BBX 4 8 1 0
BITMAP
70
80
80
B0
90
70
20
40
ENDCHAR
STARTCHAR LATIN SMALL LETTER G WITH CEDILLA
ENCODING 291
SWIDTH 600 0
DWIDTH 5 0
BBX 4 8 1 0
BITMAP
60
20
70
90
90
70
10
60
ENDCHAR
STARTCHAR LATIN CAPITAL LETTER H WITH CIRCUMFLEX
ENCODING 292
SWIDTH 600 0
DWIDTH 5 0
BBX 4 7 1 1
BITMAP
60
90
00
90
F0
90
90
ENDCHAR
STARTCHAR LATIN SMALL LETTER H WITH CIRCUMFLEX
ENCODING 293
SWIDTH 600 0
DWIDTH 5 0
BBX 4 7 1 1
BITMAP
20
D0
80
E0
90
90
90
ENDCHAR
STARTCHAR LATIN CAPITAL LETTER H WITH STROKE
ENCODING 294
SWIDTH 600 0
DWIDTH 5 0
BBX 4 7 1 1
BITMAP
90
90
F0
90
F0
90
90
ENDCHAR
STARTCHAR LATIN SMALL LETTER H WITH STROKE
ENCODING 295
SWIDTH 720 0
DWIDTH 6 0
BBX 5 7 1 1
BITMAP
40
E0
40
70
48
48
48
ENDCHAR
STARTCHAR LATIN CAPITAL LETTER I WITH TILDE
ENCODING 296
SWIDTH 480 0
DWIDTH 4 0
BBX 4 7 1 1
BITMAP
50
A0
70
20
20
20
70
ENDCHAR
STARTCHAR LATIN SMALL LETTER I WITH TILDE
ENCODING 297
SWIDTH 600 0
DWIDTH 5 0
BBX 4 7 1 1
BITMAP
50
A0
40
40
40
40
20
ENDCHAR
STARTCHAR LATIN CAPITAL LETTER I WITH MACRON
ENCODING 298
SWIDTH 480 0
DWIDTH 4 0
BBX 3 7 1 1
BITMAP
E0
00
E0
40
40
40
E0
ENDCHAR
STARTCHAR LATIN SMALL LETTER I WITH MACRON
ENCODING 299
SWIDTH 480 0
DWIDTH 4 0
BBX 3 7 1 1
BITMAP
E0
00
40
40
40
40
20
ENDCHAR
STARTCHAR LATIN CAPITAL LETTER I WITH BREVE
ENCODING 300
SWIDTH 480 0
DWIDTH 4 0
BBX 3 7 1 1
BITMAP
A0
40
E0
40
40
40
E0
ENDCHAR
STARTCHAR LATIN SMALL LETTER I WITH BREVE
ENCODING 301
SWIDTH 480 0
DWIDTH 4 0
BBX 3 7 1 1
BITMAP
A0
40
00
40
40
40
20
ENDCHAR
STARTCHAR LATIN CAPITAL LETTER I WITH OGONEK
ENCODING 302
SWIDTH 480 0
DWIDTH 4 0
BBX 3 8 1 0
BITMAP
E0
40
40
40
40
E0
40
60
ENDCHAR
STARTCHAR LATIN SMALL LETTER I WITH OGONEK
ENCODING 303
SWIDTH 360 0
DWIDTH 3 0
BBX 2 8 1 0
BITMAP
80
00
80
80
80
40
80
C0
ENDCHAR
STARTCHAR LATIN CAPITAL LETTER I WITH DOT ABOVE
ENCODING 304
SWIDTH 480 0
DWIDTH 4 0
BBX 3 7 1 1
BITMAP
40
00
E0
40
40
40
E0
ENDCHAR
STARTCHAR LATIN SMALL LETTER DOTLESS I
ENCODING 305
SWIDTH 360 0
DWIDTH 3 0
BBX 2 5 1 1
BITMAP
80
80
80
80
40
ENDCHAR
STARTCHAR LATIN CAPITAL LIGATURE IJ
ENCODING 306
SWIDTH 1080 0
DWIDTH 9 0
BBX 8 7 1 1
BITMAP
E1
41
41
41
49
49
E6
ENDCHAR
STARTCHAR LATIN SMALL LIGATURE IJ
ENCODING 307
SWIDTH 720 0
DWIDTH 6 0
BBX 5 8 1 0
BITMAP
88
00
88
88
88
88
A8
10
ENDCHAR
STARTCHAR LATIN CAPITAL LETTER J WITH CIRCUMFLEX
ENCODING 308
SWIDTH 600 0
DWIDTH 5 0
BBX 4 7 1 1
BITMAP
60
90
00
10
10
90
60
ENDCHAR
STARTCHAR LATIN SMALL LETTER J WITH CIRCUMFLEX
ENCODING 309
SWIDTH 600 0
DWIDTH 5 0
BBX 4 8 1 0
BITMAP
20
50
00
20
20
20
A0
40
ENDCHAR
STARTCHAR LATIN CAPITAL LETTER K WITH CEDILLA
ENCODING 310
SWIDTH 600 0
DWIDTH 5 0
BBX 4 8 1 0
BITMAP
90
A0
C0
A0
90
90
20
40
ENDCHAR
STARTCHAR LATIN SMALL LETTER K WITH CEDILLA
ENCODING 311
SWIDTH 600 0
DWIDTH 5 0
BBX 4 8 1 0
BITMAP
80
80
B0
C0
A0
90
20
40
ENDCHAR
STARTCHAR LATIN SMALL LETTER KRA
ENCODING 312
SWIDTH 600 0
DWIDTH 5 0
BBX 4 5 1 1
BITMAP
90
A0
C0
A0
90
ENDCHAR
STARTCHAR LATIN CAPITAL LETTER L WITH ACUTE
ENCODING 313
SWIDTH 600 0
DWIDTH 5 0
BBX 4 7 1 1
BITMAP
20
40
80
80
80
80
F0
ENDCHAR
STARTCHAR LATIN SMALL LETTER L WITH ACUTE
ENCODING 314
SWIDTH 360 0
DWIDTH 3 0
BBX 2 7 1 1
BITMAP
40
80
00
80
80
80
40
ENDCHAR
STARTCHAR LATIN CAPITAL LETTER L WITH CEDILLA
ENCODING 315
SWIDTH 600 0
DWIDTH 5 0
BBX 4 8 1 0
BITMAP
80
80
80
80
80
F0
20
40
ENDCHAR
STARTCHAR LATIN SMALL LETTER L WITH CEDILLA
ENCODING 316
SWIDTH 360 0
DWIDTH 3 0
BBX 2 8 1 0
BITMAP
80
80
80
80
80
80
40
80
ENDCHAR
STARTCHAR LATIN CAPITAL LETTER L WITH CARON
ENCODING 317
SWIDTH 600 0
DWIDTH 5 0
BBX 4 7 1 1
BITMAP
A0
A0
A0
80
80
80
F0
ENDCHAR
STARTCHAR LATIN SMALL LETTER L WITH CARON
ENCODING 318
SWIDTH 480 0
DWIDTH 4 0
BBX 3 7 1 1
BITMAP
A0
A0
A0
80
80
80
40
ENDCHAR
STARTCHAR LATIN CAPITAL LETTER L WITH MIDDLE DOT
ENCODING 319
SWIDTH 600 0
DWIDTH 5 0
BBX 4 7 1 1
BITMAP
80
80
80
90
80
80
F0
ENDCHAR
STARTCHAR LATIN SMALL LETTER L WITH MIDDLE DOT
ENCODING 320
SWIDTH 480 0
DWIDTH 4 0
BBX 3 7 1 1
BITMAP
80
80
80
A0
80
80
40
ENDCHAR
STARTCHAR LATIN CAPITAL LETTER L WITH STROKE
ENCODING 321
SWIDTH 720 0
DWIDTH 6 0
BBX 5 7 1 1
BITMAP
40
40
60
C0
40
40
78
ENDCHAR
STARTCHAR LATIN SMALL LETTER L WITH STROKE
ENCODING 322
SWIDTH 360 0
DWIDTH 3 0
BBX 3 7 0 1
BITMAP
40
40
60
C0
40
40
20
ENDCHAR
STARTCHAR LATIN CAPITAL LETTER N WITH ACUTE
ENCODING 323
SWIDTH 600 0
DWIDTH 5 0
BBX 4 7 1 1
BITMAP
20
40
90
D0
B0
90
90
ENDCHAR
STARTCHAR LATIN SMALL LETTER N WITH ACUTE
ENCODING 324
SWIDTH 600 0
DWIDTH 5 0
BBX 4 7 1 1
BITMAP
20
40
E0
90
90
90
90
ENDCHAR
STARTCHAR LATIN CAPITAL LETTER N WITH CEDILLA
ENCODING 325
SWIDTH 600 0
DWIDTH 5 0
BBX 4 8 1 0
BITMAP
90
D0
D0
B0
B0
90
20
40
ENDCHAR
STARTCHAR LATIN SMALL LETTER N WITH CEDILLA
ENCODING 326
SWIDTH 600 0
DWIDTH 5 0
BBX 4 6 1 0
BITMAP
E0
90
90
90
20
40
ENDCHAR
STARTCHAR LATIN CAPITAL LETTER N WITH CARON
ENCODING 327
SWIDTH 600 0
DWIDTH 5 0
BBX 4 7 1 1
BITMAP
90
60
90
D0
B0
90
90
ENDCHAR
STARTCHAR LATIN SMALL LETTER N WITH CARON
ENCODING 328
SWIDTH 600 0
DWIDTH 5 0
BBX 4 7 1 1
BITMAP
A0
40
00
E0
90
90
90
ENDCHAR
STARTCHAR LATIN SMALL LETTER N PRECEDED BY APOSTROPHE
ENCODING 329
SWIDTH 840 0
DWIDTH 7 0
BBX 6 7 1 1
BITMAP
80
80
B8
24
24
24
24
ENDCHAR
STARTCHAR LATIN CAPITAL LETTER ENG
ENCODING 330
SWIDTH 600 0
DWIDTH 5 0
BBX 4 8 1 0
BITMAP
90
D0
D0
B0
B0
90
10
20
ENDCHAR
STARTCHAR LATIN SMALL LETTER ENG
ENCODING 331
SWIDTH 600 0
DWIDTH 5 0
BBX 4 6 1 0
BITMAP
E0
90
90
90
10
20
ENDCHAR
STARTCHAR LATIN CAPITAL LETTER O WITH MACRON
ENCODING 332
SWIDTH 600 0
DWIDTH 5 0
BBX 4 7 1 1
BITMAP
F0
00
60
90
90
90
60
ENDCHAR
STARTCHAR LATIN SMALL LETTER O WITH MACRON
ENCODING 333
SWIDTH 600 0
DWIDTH 5 0
BBX 4 7 1 1
BITMAP
70
00
60
90
90
90
60
ENDCHAR
STARTCHAR LATIN CAPITAL LETTER O WITH BREVE
ENCODING 334
SWIDTH 600 0
DWIDTH 5 0
BBX 4 7 1 1
BITMAP
90
60
60
90
90
90
60
ENDCHAR
STARTCHAR LATIN SMALL LETTER O WITH BREVE
ENCODING 335
SWIDTH 600 0
DWIDTH 5 0
BBX 4 7 1 1
BITMAP
50
20
00
60
90
90
60
ENDCHAR
STARTCHAR LATIN CAPITAL LETTER O WITH DOUBLE ACUTE
ENCODING 336
SWIDTH 600 0
DWIDTH 5 0
BBX 4 7 1 1
BITMAP
50
A0
60
90
90
90
60
ENDCHAR
STARTCHAR LATIN SMALL LETTER O WITH DOUBLE ACUTE
ENCODING 337
SWIDTH 600 0
DWIDTH 5 0
BBX 4 7 1 1
BITMAP
50
A0
00
60
90
90
60
ENDCHAR
STARTCHAR LATIN CAPITAL LIGATURE OE
ENCODING 338
SWIDTH 960 0
DWIDTH 8 0
BBX 7 7 1 1
BITMAP
7E
90
90
9C
90
90
7E
ENDCHAR
STARTCHAR LATIN SMALL LIGATURE OE
ENCODING 339
SWIDTH 960 0
DWIDTH 8 0
BBX 7 5 1 1
BITMAP
6C
92
9C
90
6C
ENDCHAR
STARTCHAR LATIN CAPITAL LETTER R WITH ACUTE
ENCODING 340
SWIDTH 600 0
DWIDTH 5 0
BBX 4 7 1 1
BITMAP
20
40
E0
90
E0
A0
90
ENDCHAR
STARTCHAR LATIN SMALL LETTER R WITH ACUTE
ENCODING 341
SWIDTH 480 0
DWIDTH 4 0
BBX 3 7 1 1
BITMAP
20
40
A0
C0
80
80
80
ENDCHAR
STARTCHAR LATIN CAPITAL LETTER R WITH CEDILLA
ENCODING 342
SWIDTH 600 0
DWIDTH 5 0
BBX 4 8 1 0
BITMAP
E0
90
90
E0
A0
90
20
40
ENDCHAR
STARTCHAR LATIN SMALL LETTER R WITH CEDILLA
ENCODING 343
SWIDTH 480 0
DWIDTH 4 0
BBX 3 6 1 0
BITMAP
A0
C0
80
80
40
80
ENDCHAR
STARTCHAR LATIN CAPITAL LETTER R WITH CARON
ENCODING 344
SWIDTH 600 0
DWIDTH 5 0
BBX 4 7 1 1
BITMAP
90
60
E0
90
E0
A0
90
ENDCHAR
STARTCHAR LATIN SMALL LETTER R WITH CARON
ENCODING 345
SWIDTH 480 0
DWIDTH 4 0
BBX 3 7 1 1
BITMAP
A0
40
A0
C0
80
80
80
ENDCHAR
STARTCHAR LATIN CAPITAL LETTER S WITH ACUTE
ENCODING 346
SWIDTH 600 0
DWIDTH 5 0
BBX 4 7 1 1
BITMAP
20
40
70
80
60
10
E0
ENDCHAR
STARTCHAR LATIN SMALL LETTER S WITH ACUTE
ENCODING 347
SWIDTH 600 0
DWIDTH 5 0
BBX 4 7 1 1
BITMAP
20
40
60
80
60
10
E0
ENDCHAR
STARTCHAR LATIN CAPITAL LETTER S WITH CIRCUMFLEX
ENCODING 348
SWIDTH 600 0
DWIDTH 5 0
BBX 4 7 1 1
BITMAP
60
90
70
80
60
10
E0
ENDCHAR
STARTCHAR LATIN SMALL LETTER S WITH CIRCUMFLEX
ENCODING 349
SWIDTH 600 0
DWIDTH 5 0
BBX 4 7 1 1
BITMAP
40
A0
60
80
60
10
E0
ENDCHAR
STARTCHAR LATIN CAPITAL LETTER S WITH CEDILLA
ENCODING 350
SWIDTH 600 0
DWIDTH 5 0
BBX 4 8 1 0
BITMAP
60
90
40
20
90
60
20
40
ENDCHAR
STARTCHAR LATIN SMALL LETTER S WITH CEDILLA
ENCODING 351
SWIDTH 600 0
DWIDTH 5 0
BBX 4 6 1 0
BITMAP
70
C0
30
E0
20
40
ENDCHAR
STARTCHAR LATIN CAPITAL LETTER S WITH CARON
ENCODING 352
SWIDTH 600 0
DWIDTH 5 0
BBX 4 7 1 1
BITMAP
90
60
70
80
60
10
E0
ENDCHAR
STARTCHAR LATIN SMALL LETTER S WITH CARON
ENCODING 353
SWIDTH 600 0
DWIDTH 5 0
BBX 4 7 1 1
BITMAP
A0
40
60
80
60
10
E0
ENDCHAR
STARTCHAR LATIN CAPITAL LETTER T WITH CEDILLA
ENCODING 354
SWIDTH 720 0
DWIDTH 6 0
BBX 5 8 1 0
BITMAP
F8
20
20
20
20
20
10
20
ENDCHAR
STARTCHAR LATIN SMALL LETTER T WITH CEDILLA
ENCODING 355
SWIDTH 480 0
DWIDTH 4 0
BBX 3 8 1 0
BITMAP
40
40
E0
40
40
40
20
C0
ENDCHAR
STARTCHAR LATIN CAPITAL LETTER T WITH CARON
ENCODING 356
SWIDTH 720 0
DWIDTH 6 0
BBX 5 7 1 1
BITMAP
48
30
F8
20
20
20
20
ENDCHAR
STARTCHAR LATIN SMALL LETTER T WITH CARON
ENCODING 357
SWIDTH 720 0
DWIDTH 6 0
BBX 5 7 1 1
BITMAP
48
48
E8
40
40
40
30
ENDCHAR
STARTCHAR LATIN CAPITAL LETTER T WITH STROKE
ENCODING 358
SWIDTH 720 0
DWIDTH 6 0
BBX 5 7 1 1
BITMAP
F8
20
20
70
20
20
20
ENDCHAR
STARTCHAR LATIN SMALL LETTER T WITH STROKE
ENCODING 359
SWIDTH 600 0
DWIDTH 5 0
BBX 4 7 1 1
BITMAP
40
40
E0
40
E0
40
30
ENDCHAR
STARTCHAR LATIN CAPITAL LETTER U WITH TILDE
ENCODING 360
SWIDTH 600 0
DWIDTH 5 0
BBX 4 7 1 1
BITMAP
50
A0
00
90
90
90
60
ENDCHAR
STARTCHAR LATIN SMALL LETTER U WITH TILDE
ENCODING 361
SWIDTH 600 0
DWIDTH 5 0
BBX 4 7 1 1
BITMAP
50
A0
00
90
90
90
70
ENDCHAR
STARTCHAR LATIN CAPITAL LETTER U WITH MACRON
ENCODING 362
SWIDTH 600 0
DWIDTH 5 0
BBX 4 7 1 1
BITMAP
F0
00
90
90
90
90
60
ENDCHAR
STARTCHAR LATIN SMALL LETTER U WITH MACRON
ENCODING 363
SWIDTH 600 0
DWIDTH 5 0
BBX 4 7 1 1
BITMAP
70
00
90
90
90
90
70
ENDCHAR
STARTCHAR LATIN CAPITAL LETTER U WITH BREVE
ENCODING 364
SWIDTH 600 0
DWIDTH 5 0
BBX 4 7 1 1
BITMAP
90
60
00
90
90
90
60
ENDCHAR
STARTCHAR LATIN SMALL LETTER U WITH BREVE
ENCODING 365
SWIDTH 600 0
DWIDTH 5 0
BBX 4 7 1 1
BITMAP
50
20
00
90
90
90
70
ENDCHAR
STARTCHAR LATIN CAPITAL LETTER U WITH RING ABOVE
ENCODING 366
SWIDTH 600 0
DWIDTH 5 0
BBX 4 7 1 1
BITMAP
60
90
60
90
90
90
60
ENDCHAR
STARTCHAR LATIN SMALL LETTER U WITH RING ABOVE
ENCODING 367
SWIDTH 600 0
DWIDTH 5 0
BBX 4 7 1 1
BITMAP
60
90
60
90
90
90
70
ENDCHAR
STARTCHAR LATIN CAPITAL LETTER U WITH DOUBLE ACUTE
ENCODING 368
SWIDTH 600 0
DWIDTH 5 0
BBX 4 7 1 1
BITMAP
50
A0
00
90
90
90
60
ENDCHAR
STARTCHAR LATIN SMALL LETTER U WITH DOUBLE ACUTE
ENCODING 369
SWIDTH 600 0
DWIDTH 5 0
BBX 4 7 1 1
BITMAP
50
A0
00
90
90
90
70
ENDCHAR
STARTCHAR LATIN CAPITAL LETTER U WITH OGONEK
ENCODING 370
SWIDTH 600 0
DWIDTH 5 0
BBX 4 8 1 0
BITMAP
90
90
90
90
90
60
20
30
ENDCHAR
STARTCHAR LATIN SMALL LETTER U WITH OGONEK
ENCODING 371
SWIDTH 600 0
DWIDTH 5 0
BBX 4 6 1 0
BITMAP
90
90
90
70
20
30
ENDCHAR
STARTCHAR LATIN CAPITAL LETTER W WITH CIRCUMFLEX
ENCODING 372
SWIDTH 720 0
DWIDTH 6 0
BBX 5 7 1 1
BITMAP
20
50
88
A8
A8
A8
50
ENDCHAR
STARTCHAR LATIN SMALL LETTER W WITH CIRCUMFLEX
ENCODING 373
SWIDTH 720 0
DWIDTH 6 0
BBX 5 7 1 1
BITMAP
20
50
00
88
A8
A8
50
ENDCHAR
STARTCHAR LATIN CAPITAL LETTER Y WITH CIRCUMFLEX
ENCODING 374
SWIDTH 720 0
DWIDTH 6 0
BBX 5 7 1 1
BITMAP
20
50
88
88
50
20
20
ENDCHAR
STARTCHAR LATIN SMALL LETTER Y WITH CIRCUMFLEX
ENCODING 375
SWIDTH 600 0
DWIDTH 5 0
BBX 4 8 1 0
BITMAP
20
50
00
90
90
70
10
60
ENDCHAR
STARTCHAR LATIN CAPITAL LETTER Y WITH DIAERESIS
ENCODING 376
SWIDTH 720 0
DWIDTH 6 0
BBX 5 7 1 1
BITMAP
50
00
88
88
50
20
20
ENDCHAR
STARTCHAR LATIN CAPITAL LETTER Z WITH ACUTE
ENCODING 377
SWIDTH 720 0
DWIDTH 6 0
BBX 5 7 1 1
BITMAP
10
20
F8
10
20
40
F8
ENDCHAR
STARTCHAR LATIN SMALL LETTER Z WITH ACUTE
ENCODING 378
SWIDTH 480 0
DWIDTH 4 0
BBX 3 7 1 1
BITMAP
20
40
E0
20
40
80
E0
ENDCHAR
STARTCHAR LATIN CAPITAL LETTER Z WITH DOT ABOVE
ENCODING 379
SWIDTH 720 0
DWIDTH 6 0
BBX 5 7 1 1
BITMAP
20
00
F8
10
20
40
F8
ENDCHAR
STARTCHAR LATIN SMALL LETTER Z WITH DOT ABOVE
ENCODING 380
SWIDTH 480 0
DWIDTH 4 0
BBX 3 7 1 1
BITMAP
40
00
E0
20
40
80
E0
ENDCHAR
STARTCHAR LATIN CAPITAL LETTER Z WITH CARON
ENCODING 381
SWIDTH 720 0
DWIDTH 6 0
BBX 5 7 1 1
BITMAP
50
20
F8
10
20
40
F8
ENDCHAR
STARTCHAR LATIN SMALL LETTER Z WITH CARON
ENCODING 382
SWIDTH 480 0
DWIDTH 4 0
BBX 3 7 1 1
BITMAP
A0
40
E0
20
40
80
E0
ENDCHAR
STARTCHAR LATIN SMALL LETTER LONG S
ENCODING 383
SWIDTH 600 0
DWIDTH 5 0
BBX 4 7 1 1
BITMAP
30
40
C0
40
40
40
40
ENDCHAR
STARTCHAR GREEK QUESTION MARK
ENCODING 894
SWIDTH 360 0
DWIDTH 3 0
BBX 2 6 1 0
BITMAP
40
00
00
40
40
80
ENDCHAR
STARTCHAR GREEK TONOS
ENCODING 900
SWIDTH 360 0
DWIDTH 3 0
BBX 2 2 1 6
BITMAP
40
80
ENDCHAR
STARTCHAR GREEK DIALYTIKA TONOS
ENCODING 901
SWIDTH 480 0
DWIDTH 4 0
BBX 4 2 0 6
BITMAP
10
A0
ENDCHAR
STARTCHAR GREEK CAPITAL LETTER ALPHA WITH TONOS
ENCODING 902
SWIDTH 720 0
DWIDTH 6 0
BBX 6 7 0 1
BITMAP
58
A4
24
3C
24
24
24
ENDCHAR
STARTCHAR GREEK ANO TELEIA
ENCODING 903
SWIDTH 360 0
DWIDTH 3 0
BBX 2 2 1 3
BITMAP
C0
C0
ENDCHAR
STARTCHAR GREEK CAPITAL LETTER EPSILON WITH TONOS
ENCODING 904
SWIDTH 720 0
DWIDTH 6 0
BBX 6 7 0 1
BITMAP
7C
A0
20
38
20
20
3C
ENDCHAR
STARTCHAR GREEK CAPITAL LETTER ETA WITH TONOS
ENCODING 905
SWIDTH 720 0
DWIDTH 6 0
BBX 6 7 0 1
BITMAP
64
A4
24
3C
24
24
24
ENDCHAR
STARTCHAR GREEK CAPITAL LETTER IOTA WITH TONOS
ENCODING 906
SWIDTH 600 0
DWIDTH 5 0
BBX 5 7 0 1
BITMAP
58
90
10
10
10
10
38
ENDCHAR
STARTCHAR GREEK CAPITAL LETTER OMICRON WITH TONOS
ENCODING 908
SWIDTH 720 0
DWIDTH 6 0
BBX 6 7 0 1
BITMAP
58
A4
24
24
24
24
18
ENDCHAR
STARTCHAR GREEK CAPITAL LETTER UPSILON WITH TONOS
ENCODING 910
SWIDTH 840 0
DWIDTH 7 0
BBX 7 7 0 1
BITMAP
62
A2
22
14
08
08
08
ENDCHAR
STARTCHAR GREEK CAPITAL LETTER OMEGA WITH TONOS
ENCODING 911
SWIDTH 840 0
DWIDTH 7 0
BBX 7 7 0 1
BITMAP
5C
A2
22
22
22
14
36
ENDCHAR
STARTCHAR GREEK SMALL LETTER IOTA WITH DIALYTIKA AND TONOS
ENCODING 912
SWIDTH 600 0
DWIDTH 5 0
BBX 4 7 1 1
BITMAP
10
A0
00
40
40
40
20
ENDCHAR
STARTCHAR GREEK CAPITAL LETTER ALPHA
ENCODING 913
SWIDTH 600 0
DWIDTH 5 0
BBX 4 7 1 1
BITMAP
60
90
90
F0
90
90
90
ENDCHAR
STARTCHAR GREEK CAPITAL LETTER BETA
ENCODING 914
SWIDTH 600 0
DWIDTH 5 0
BBX 4 7 1 1
BITMAP
E0
90
90
E0
90
90
E0
ENDCHAR
STARTCHAR GREEK CAPITAL LETTER GAMMA
ENCODING 915
SWIDTH 600 0
DWIDTH 5 0
BBX 4 7 1 1
BITMAP
F0
80
80
80
80
80
80
ENDCHAR
STARTCHAR GREEK CAPITAL LETTER DELTA
ENCODING 916
SWIDTH 720 0
DWIDTH 6 0
BBX 5 7 1 1
BITMAP
20
20
50
50
88
88
F8
ENDCHAR
STARTCHAR GREEK CAPITAL LETTER EPSILON
ENCODING 917
SWIDTH 600 0
DWIDTH 5 0
BBX 4 7 1 1
BITMAP
F0
80
80
E0
80
80
F0
ENDCHAR
STARTCHAR GREEK CAPITAL LETTER ZETA
ENCODING 918
SWIDTH 720 0
DWIDTH 6 0
BBX 5 7 1 1
BITMAP
F8
08
10
20
40
80
F8
ENDCHAR
STARTCHAR GREEK CAPITAL LETTER ETA
ENCODING 919
SWIDTH 600 0
DWIDTH 5 0
BBX 4 7 1 1
BITMAP
90
90
90
F0
90
90
90
ENDCHAR
STARTCHAR GREEK CAPITAL LETTER THETA
ENCODING 920
SWIDTH 720 0
DWIDTH 6 0
BBX 5 7 1 1
BITMAP
70
88
88
F8
88
88
70
ENDCHAR
STARTCHAR GREEK CAPITAL LETTER IOTA
ENCODING 921
SWIDTH 480 0
DWIDTH 4 0
BBX 3 7 1 1
BITMAP
E0
40
40
40
40
40
E0
ENDCHAR
STARTCHAR GREEK CAPITAL LETTER KAPPA
ENCODING 922
SWIDTH 600 0
DWIDTH 5 0
BBX 4 7 1 1
BITMAP
90
90
A0
C0
A0
90
90
ENDCHAR
STARTCHAR GREEK CAPITAL LETTER LAMDA
ENCODING 923
SWIDTH 720 0
DWIDTH 6 0
BBX 5 7 1 1
BITMAP
20
20
50
50
88
88
88
ENDCHAR
STARTCHAR GREEK CAPITAL LETTER MU
ENCODING 924
SWIDTH 720 0
DWIDTH 6 0
BBX 5 7 1 1
BITMAP
88
D8
D8
A8
A8
88
88
ENDCHAR
STARTCHAR GREEK CAPITAL LETTER NU
ENCODING 925
SWIDTH 600 0
DWIDTH 5 0
BBX 4 7 1 1
BITMAP
90
D0
D0
B0
B0
90
90
ENDCHAR
STARTCHAR GREEK CAPITAL LETTER XI
ENCODING 926
SWIDTH 600 0
DWIDTH 5 0
BBX 4 7 1 1
BITMAP
F0
90
00
60
00
90
F0
ENDCHAR
STARTCHAR GREEK CAPITAL LETTER OMICRON
ENCODING 927
SWIDTH 600 0
DWIDTH 5 0
BBX 4 7 1 1
BITMAP
60
90
90
90
90
90
60
ENDCHAR
STARTCHAR GREEK CAPITAL LETTER PI
ENCODING 928
SWIDTH 600 0
DWIDTH 5 0
BBX 4 7 1 1
BITMAP
F0
90
90
90
90
90
90
ENDCHAR
STARTCHAR GREEK CAPITAL LETTER RHO
ENCODING 929
SWIDTH 600 0
DWIDTH 5 0
BBX 4 7 1 1
BITMAP
E0
90
90
E0
80
80
80
ENDCHAR
STARTCHAR GREEK CAPITAL LETTER SIGMA
ENCODING 931
SWIDTH 600 0
DWIDTH 5 0
BBX 4 7 1 1
BITMAP
F0
80
40
20
40
80
F0
ENDCHAR
STARTCHAR GREEK CAPITAL LETTER TAU
ENCODING 932
SWIDTH 720 0
DWIDTH 6 0
BBX 5 7 1 1
BITMAP
F8
20
20
20
20
20
20
ENDCHAR
STARTCHAR GREEK CAPITAL LETTER UPSILON
ENCODING 933
SWIDTH 720 0
DWIDTH 6 0
BBX 5 7 1 1
BITMAP
88
88
88
50
20
20
20
ENDCHAR
STARTCHAR GREEK CAPITAL LETTER PHI
ENCODING 934
SWIDTH 720 0
DWIDTH 6 0
BBX 5 7 1 1
BITMAP
20
70
A8
A8
A8
70
20
ENDCHAR
STARTCHAR GREEK CAPITAL LETTER CHI
ENCODING 935
SWIDTH 720 0
DWIDTH 6 0
BBX 5 7 1 1
BITMAP
88
88
50
20
50
88
88
ENDCHAR
STARTCHAR GREEK CAPITAL LETTER PSI
ENCODING 936
SWIDTH 720 0
DWIDTH 6 0
BBX 5 7 1 1
BITMAP
A8
A8
A8
70
20
20
20
ENDCHAR
STARTCHAR GREEK CAPITAL LETTER OMEGA
ENCODING 937
SWIDTH 720 0
DWIDTH 6 0
BBX 5 7 1 1
BITMAP
70
88
88
88
88
50
D8
ENDCHAR
STARTCHAR GREEK CAPITAL LETTER IOTA WITH DIALYTIKA
ENCODING 938
SWIDTH 480 0
DWIDTH 4 0
BBX 3 7 1 1
BITMAP
A0
00
E0
40
40
40
E0
ENDCHAR
STARTCHAR GREEK CAPITAL LETTER UPSILON WITH DIALYTIKA
ENCODING 939
SWIDTH 720 0
DWIDTH 6 0
BBX 5 7 1 1
BITMAP
50
00
88
88
50
20
20
ENDCHAR
STARTCHAR GREEK SMALL LETTER ALPHA WITH TONOS
ENCODING 940
SWIDTH 720 0
DWIDTH 6 0
BBX 5 7 1 1
BITMAP
20
40
68
90
90
90
68
ENDCHAR
STARTCHAR GREEK SMALL LETTER EPSILON WITH TONOS
ENCODING 941
SWIDTH 600 0
DWIDTH 5 0
BBX 4 7 1 1
BITMAP
20
40
70
80
60
80
70
ENDCHAR
STARTCHAR GREEK SMALL LETTER ETA WITH TONOS
ENCODING 942
SWIDTH 600 0
DWIDTH 5 0
BBX 4 8 1 0
BITMAP
20
40
E0
90
90
90
90
10
ENDCHAR
STARTCHAR GREEK SMALL LETTER IOTA WITH TONOS
ENCODING 943
SWIDTH 360 0
DWIDTH 3 0
BBX 2 7 1 1
BITMAP
40
80
00
80
80
80
40
ENDCHAR
STARTCHAR GREEK SMALL LETTER UPSILON WITH DIALYTIKA AND TONOS
ENCODING 944
SWIDTH 600 0
DWIDTH 5 0
BBX 4 7 1 1
BITMAP
10
A0
00
90
90
90
60
ENDCHAR
STARTCHAR GREEK SMALL LETTER ALPHA
ENCODING 945
SWIDTH 720 0
DWIDTH 6 0
BBX 5 5 1 1
BITMAP
68
90
90
90
68
ENDCHAR
STARTCHAR GREEK SMALL LETTER BETA
ENCODING 946
SWIDTH 600 0
DWIDTH 5 0
BBX 4 8 1 0
BITMAP
60
90
90
A0
90
90
A0
80
ENDCHAR
STARTCHAR GREEK SMALL LETTER GAMMA
ENCODING 947
SWIDTH 600 0
DWIDTH 5 0
BBX 4 6 1 0
BITMAP
90
50
60
20
40
40
ENDCHAR
STARTCHAR GREEK SMALL LETTER DELTA
ENCODING 948
SWIDTH 600 0
DWIDTH 5 0
BBX 4 7 1 1
BITMAP
70
80
60
90
90
90
60
ENDCHAR
STARTCHAR GREEK SMALL LETTER EPSILON
ENCODING 949
SWIDTH 600 0
DWIDTH 5 0
BBX 4 5 1 1
BITMAP
70
80
60
80
70
ENDCHAR
STARTCHAR GREEK SMALL LETTER ZETA
ENCODING 950
SWIDTH 600 0
DWIDTH 5 0
BBX 4 8 1 0
BITMAP
F0
60
80
80
80
60
10
20
ENDCHAR
STARTCHAR GREEK SMALL LETTER ETA
ENCODING 951
SWIDTH 600 0
DWIDTH 5 0
BBX 4 6 1 0
BITMAP
E0
90
90
90
90
10
ENDCHAR
STARTCHAR GREEK SMALL LETTER THETA
ENCODING 952
SWIDTH 600 0
DWIDTH 5 0
BBX 4 7 1 1
BITMAP
60
90
90
F0
90
90
60
ENDCHAR
STARTCHAR GREEK SMALL LETTER IOTA
ENCODING 953
SWIDTH 360 0
DWIDTH 3 0
BBX 2 5 1 1
BITMAP
80
80
80
80
40
ENDCHAR
STARTCHAR GREEK SMALL LETTER KAPPA
ENCODING 954
SWIDTH 600 0
DWIDTH 5 0
BBX 4 5 1 1
BITMAP
90
A0
C0
A0
90
ENDCHAR
STARTCHAR GREEK SMALL LETTER LAMDA
ENCODING 955
SWIDTH 600 0
DWIDTH 5 0
BBX 4 7 1 1
BITMAP
40
40
20
60
50
90
90
ENDCHAR
STARTCHAR GREEK SMALL LETTER MU
ENCODING 956
SWIDTH 600 0
DWIDTH 5 0
BBX 4 6 1 0
BITMAP
90
90
90
D0
A0
80
ENDCHAR
STARTCHAR GREEK SMALL LETTER NU
ENCODING 957
SWIDTH 720 0
DWIDTH 6 0
BBX 5 5 1 1
BITMAP
88
88
50
50
20
ENDCHAR
STARTCHAR GREEK SMALL LETTER XI
ENCODING 958
SWIDTH 600 0
DWIDTH 5 0
BBX 4 8 1 0
BITMAP
F0
60
80
60
80
60
10
20
ENDCHAR
STARTCHAR GREEK SMALL LETTER OMICRON
ENCODING 959
SWIDTH 600 0
DWIDTH 5 0
BBX 4 5 1 1
BITMAP
60
90
90
90
60
ENDCHAR
STARTCHAR GREEK SMALL LETTER PI
ENCODING 960
SWIDTH 720 0
DWIDTH 6 0
BBX 5 5 1 1
BITMAP
F8
50
50
50
48
ENDCHAR
STARTCHAR GREEK SMALL LETTER RHO
ENCODING 961
SWIDTH 600 0
DWIDTH 5 0
BBX 5 6 0 0
BITMAP
30
48
48
68
50
40
ENDCHAR
STARTCHAR GREEK SMALL LETTER FINAL SIGMA
ENCODING 962
SWIDTH 480 0
DWIDTH 4 0
BBX 3 6 1 0
BITMAP
60
80
80
60
20
40
ENDCHAR
STARTCHAR GREEK SMALL LETTER SIGMA
ENCODING 963
SWIDTH 600 0
DWIDTH 5 0
BBX 4 5 1 1
BITMAP
70
A0
90
90
60
ENDCHAR
STARTCHAR GREEK SMALL LETTER TAU
ENCODING 964
SWIDTH 720 0
DWIDTH 6 0
BBX 5 5 1 1
BITMAP
F8
20
20
20
10
ENDCHAR
STARTCHAR GREEK SMALL LETTER UPSILON
ENCODING 965
SWIDTH 600 0
DWIDTH 5 0
BBX 4 5 1 1
BITMAP
90
90
90
90
60
ENDCHAR
STARTCHAR GREEK SMALL LETTER PHI
ENCODING 966
SWIDTH 720 0
DWIDTH 6 0
BBX 5 8 1 0
BITMAP
20
20
70
A8
A8
A8
70
20
ENDCHAR
STARTCHAR GREEK SMALL LETTER CHI
ENCODING 967
SWIDTH 600 0
DWIDTH 5 0
BBX 4 7 1 0
BITMAP
90
50
20
60
40
A0
90
ENDCHAR
STARTCHAR GREEK SMALL LETTER PSI
ENCODING 968
SWIDTH 720 0
DWIDTH 6 0
BBX 5 6 1 0
BITMAP
A8
A8
A8
70
20
20
ENDCHAR
STARTCHAR GREEK SMALL LETTER OMEGA
ENCODING 969
SWIDTH 720 0
DWIDTH 6 0
BBX 5 5 1 1
BITMAP
50
88
A8
A8
50
ENDCHAR
STARTCHAR GREEK SMALL LETTER IOTA WITH DIALYTIKA
ENCODING 970
SWIDTH 360 0
DWIDTH 3 0
BBX 3 7 1 1
BITMAP
A0
00
40
40
40
40
20
ENDCHAR
STARTCHAR GREEK SMALL LETTER UPSILON WITH DIALYTIKA
ENCODING 971
SWIDTH 600 0
DWIDTH 5 0
BBX 4 7 1 1
BITMAP
A0
00
90
90
90
90
60
ENDCHAR
STARTCHAR GREEK SMALL LETTER OMICRON WITH TONOS
ENCODING 972
SWIDTH 600 0
DWIDTH 5 0
BBX 4 7 1 1
BITMAP
20
40
60
90
90
90
60
ENDCHAR
STARTCHAR GREEK SMALL LETTER UPSILON WITH TONOS
ENCODING 973
SWIDTH 600 0
DWIDTH 5 0
BBX 4 7 1 1
BITMAP
20
40
90
90
90
90
60
ENDCHAR
STARTCHAR GREEK SMALL LETTER OMEGA WITH TONOS
ENCODING 974
SWIDTH 720 0
DWIDTH 6 0
BBX 5 7 1 1
BITMAP
10
20
50
88
A8
A8
50
ENDCHAR
STARTCHAR GREEK LETTER YOT
ENCODING 1011
SWIDTH 480 0
DWIDTH 4 0
BBX 3 8 1 0
BITMAP
20
00
20
20
20
20
A0
40
ENDCHAR
STARTCHAR CYRILLIC CAPITAL LETTER IE WITH GRAVE
ENCODING 1024
SWIDTH 600 0
DWIDTH 5 0
BBX 4 7 1 1
BITMAP
40
20
F0
80
E0
80
F0
ENDCHAR
STARTCHAR CYRILLIC CAPITAL LETTER IO
ENCODING 1025
SWIDTH 600 0
DWIDTH 5 0
BBX 4 7 1 1
BITMAP
90
00
F0
80
E0
80
F0
ENDCHAR
STARTCHAR CYRILLIC CAPITAL LETTER DJE
ENCODING 1026
SWIDTH 720 0
DWIDTH 6 0
BBX 5 7 1 1
BITMAP
F0
40
40
70
48
48
70
ENDCHAR
STARTCHAR CYRILLIC CAPITAL LETTER GJE
ENCODING 1027
SWIDTH 600 0
DWIDTH 5 0
BBX 4 7 1 1
BITMAP
20
40
F0
80
80
80
80
ENDCHAR
STARTCHAR CYRILLIC CAPITAL LETTER UKRAINIAN IE
ENCODING 1028
SWIDTH 600 0
DWIDTH 5 0
BBX 4 7 1 1
BITMAP
60
90
80
E0
80
90
60
ENDCHAR
STARTCHAR CYRILLIC CAPITAL LETTER DZE
ENCODING 1029
SWIDTH 600 0
DWIDTH 5 0
BBX 4 7 1 1
BITMAP
60
90
80
60
10
90
60
ENDCHAR
STARTCHAR CYRILLIC CAPITAL LETTER BYELORUSSIAN-UKRAINIAN I
ENCODING 1030
SWIDTH 480 0
DWIDTH 4 0
BBX 3 7 1 1
BITMAP
E0
40
40
40
40
40
E0
ENDCHAR
STARTCHAR CYRILLIC CAPITAL LETTER YI
ENCODING 1031
SWIDTH 480 0
DWIDTH 4 0
BBX 3 7 1 1
BITMAP
A0
00
E0
40
40
40
E0
ENDCHAR
STARTCHAR CYRILLIC CAPITAL LETTER JE
ENCODING 1032
SWIDTH 600 0
DWIDTH 5 0
BBX 4 7 1 1
BITMAP
10
10
10
10
90
90
60
ENDCHAR
STARTCHAR CYRILLIC CAPITAL LETTER LJE
ENCODING 1033
SWIDTH 840 0
DWIDTH 7 0
BBX 6 7 1 1
BITMAP
70
50
50
58
54
54
98
ENDCHAR
STARTCHAR CYRILLIC CAPITAL LETTER NJE
ENCODING 1034
SWIDTH 840 0
DWIDTH 7 0
BBX 6 7 1 1
BITMAP
90
90
90
F8
94
94
98
ENDCHAR
STARTCHAR CYRILLIC CAPITAL LETTER TSHE
ENCODING 1035
SWIDTH 720 0
DWIDTH 6 0
BBX 5 7 1 1
BITMAP
F0
40
40
70
48
48
48
ENDCHAR
STARTCHAR CYRILLIC CAPITAL LETTER KJE
ENCODING 1036
SWIDTH 600 0
DWIDTH 5 0
BBX 4 7 1 1
BITMAP
20
40
90
A0
C0
A0
90
ENDCHAR
STARTCHAR CYRILLIC CAPITAL LETTER I WITH GRAVE
ENCODING 1037
SWIDTH 600 0
DWIDTH 5 0
BBX 4 7 1 1
BITMAP
40
20
90
90
B0
D0
90
ENDCHAR
STARTCHAR CYRILLIC CAPITAL LETTER SHORT U
ENCODING 1038
SWIDTH 600 0
DWIDTH 5 0
BBX 4 7 1 1
BITMAP
90
60
90
90
70
10
60
ENDCHAR
STARTCHAR CYRILLIC CAPITAL LETTER DZHE
ENCODING 1039
SWIDTH 600 0
DWIDTH 5 0
BBX 5 8 0 0
BITMAP
48
48
48
48
48
48
78
10
ENDCHAR
STARTCHAR CYRILLIC CAPITAL LETTER A
ENCODING 1040
SWIDTH 600 0
DWIDTH 5 0
BBX 4 7 1 1
BITMAP
60
90
90
F0
90
90
90
ENDCHAR
STARTCHAR CYRILLIC CAPITAL LETTER BE
ENCODING 1041
SWIDTH 600 0
DWIDTH 5 0
BBX 4 7 1 1
BITMAP
F0
80
80
E0
90
90
E0
ENDCHAR
STARTCHAR CYRILLIC CAPITAL LETTER VE
ENCODING 1042
SWIDTH 600 0
DWIDTH 5 0
BBX 4 7 1 1
BITMAP
E0
90
90
E0
90
90
E0
ENDCHAR
STARTCHAR CYRILLIC CAPITAL LETTER GHE
ENCODING 1043
SWIDTH 600 0
DWIDTH 5 0
BBX 4 7 1 1
BITMAP
F0
80
80
80
80
80
80
ENDCHAR
STARTCHAR CYRILLIC CAPITAL LETTER DE
ENCODING 1044
SWIDTH 720 0
DWIDTH 6 0
BBX 5 8 1 0
BITMAP
38
48
48
48
48
48
F8
88
ENDCHAR
STARTCHAR CYRILLIC CAPITAL LETTER IE
ENCODING 1045
SWIDTH 600 0
DWIDTH 5 0
BBX 4 7 1 1
BITMAP
F0
80
80
E0
80
80
F0
ENDCHAR
STARTCHAR CYRILLIC CAPITAL LETTER ZHE
ENCODING 1046
SWIDTH 960 0
DWIDTH 8 0
BBX 7 7 1 1
BITMAP
92
92
54
38
54
92
92
ENDCHAR
STARTCHAR CYRILLIC CAPITAL LETTER ZE
ENCODING 1047
SWIDTH 600 0
DWIDTH 5 0
BBX 4 7 1 1
BITMAP
60
90
10
60
10
90
60
ENDCHAR
STARTCHAR CYRILLIC CAPITAL LETTER I
ENCODING 1048
SWIDTH 600 0
DWIDTH 5 0
BBX 4 7 1 1
BITMAP
90
90
B0
B0
D0
D0
90
ENDCHAR
STARTCHAR CYRILLIC CAPITAL LETTER SHORT I
ENCODING 1049
SWIDTH 600 0
DWIDTH 5 0
BBX 4 7 1 1
BITMAP
90
60
90
90
B0
D0
90
ENDCHAR
STARTCHAR CYRILLIC CAPITAL LETTER KA
ENCODING 1050
SWIDTH 600 0
DWIDTH 5 0
BBX 4 7 1 1
BITMAP
90
90
A0
C0
A0
90
90
ENDCHAR
STARTCHAR CYRILLIC CAPITAL LETTER EL
ENCODING 1051
SWIDTH 600 0
DWIDTH 5 0
BBX 4 7 1 1
BITMAP
70
50
50
50
50
50
90
ENDCHAR
STARTCHAR CYRILLIC CAPITAL LETTER EM
ENCODING 1052
SWIDTH 720 0
DWIDTH 6 0
BBX 5 7 1 1
BITMAP
88
D8
D8
A8
A8
88
88
ENDCHAR
STARTCHAR CYRILLIC CAPITAL LETTER EN
ENCODING 1053
SWIDTH 600 0
DWIDTH 5 0
BBX 4 7 1 1
BITMAP
90
90
90
F0
90
90
90
ENDCHAR
STARTCHAR CYRILLIC CAPITAL LETTER O
ENCODING 1054
SWIDTH 600 0
DWIDTH 5 0
BBX 4 7 1 1
BITMAP
60
90
90
90
90
90
60
ENDCHAR
STARTCHAR CYRILLIC CAPITAL LETTER PE
ENCODING 1055
SWIDTH 600 0
DWIDTH 5 0
BBX 4 7 1 1
BITMAP
F0
90
90
90
90
90
90
ENDCHAR
STARTCHAR CYRILLIC CAPITAL LETTER ER
ENCODING 1056
SWIDTH 600 0
DWIDTH 5 0
BBX 4 7 1 1
BITMAP
E0
90
90
E0
80
80
80
ENDCHAR
STARTCHAR CYRILLIC CAPITAL LETTER ES
ENCODING 1057
SWIDTH 600 0
DWIDTH 5 0
BBX 4 7 1 1
BITMAP
60
90
80
80
80
90
60
ENDCHAR
STARTCHAR CYRILLIC CAPITAL LETTER TE
ENCODING 1058
SWIDTH 720 0
DWIDTH 6 0
BBX 5 7 1 1
BITMAP
F8
20
20
20
20
20
20
ENDCHAR
STARTCHAR CYRILLIC CAPITAL LETTER U
ENCODING 1059
SWIDTH 600 0
DWIDTH 5 0
BBX 4 7 1 1
BITMAP
90
90
90
70
10
10
60
ENDCHAR
STARTCHAR CYRILLIC CAPITAL LETTER EF
ENCODING 1060
SWIDTH 720 0
DWIDTH 6 0
BBX 5 7 1 1
BITMAP
20
70
A8
A8
A8
70
20
ENDCHAR
STARTCHAR CYRILLIC CAPITAL LETTER HA
ENCODING 1061
SWIDTH 720 0
DWIDTH 6 0
BBX 5 7 1 1
BITMAP
88
88
50
20
50
88
88
ENDCHAR
STARTCHAR CYRILLIC CAPITAL LETTER TSE
ENCODING 1062
SWIDTH 600 0
DWIDTH 5 0
BBX 4 8 1 0
BITMAP
90
90
90
90
90
90
F0
10
ENDCHAR
STARTCHAR CYRILLIC CAPITAL LETTER CHE
ENCODING 1063
SWIDTH 600 0
DWIDTH 5 0
BBX 4 7 1 1
BITMAP
90
90
90
70
10
10
10
ENDCHAR
STARTCHAR CYRILLIC CAPITAL LETTER SHA
ENCODING 1064
SWIDTH 960 0
DWIDTH 8 0
BBX 7 7 1 1
BITMAP
92
92
92
92
92
92
FE
ENDCHAR
STARTCHAR CYRILLIC CAPITAL LETTER SHCHA
ENCODING 1065
SWIDTH 960 0
DWIDTH 8 0
BBX 7 8 1 0
BITMAP
92
92
92
92
92
92
FE
02
ENDCHAR
STARTCHAR CYRILLIC CAPITAL LETTER HARD SIGN
ENCODING 1066
SWIDTH 720 0
DWIDTH 6 0
BBX 5 7 1 1
BITMAP
C0
40
70
48
48
48
70
ENDCHAR
STARTCHAR CYRILLIC CAPITAL LETTER YERU
ENCODING 1067
SWIDTH 840 0
DWIDTH 7 0
BBX 6 7 1 1
BITMAP
84
84
E4
94
94
94
E4
ENDCHAR
STARTCHAR CYRILLIC CAPITAL LETTER SOFT SIGN
ENCODING 1068
SWIDTH 600 0
DWIDTH 5 0
BBX 4 7 1 1
BITMAP
80
80
E0
90
90
90
E0
ENDCHAR
STARTCHAR CYRILLIC CAPITAL LETTER E
ENCODING 1069
SWIDTH 600 0
DWIDTH 5 0
BBX 4 7 1 1
BITMAP
60
90
10
70
10
90
60
ENDCHAR
STARTCHAR CYRILLIC CAPITAL LETTER YU
ENCODING 1070
SWIDTH 840 0
DWIDTH 7 0
BBX 6 7 1 1
BITMAP
98
A4
A4
E4
A4
A4
98
ENDCHAR
STARTCHAR CYRILLIC CAPITAL LETTER YA
ENCODING 1071
SWIDTH 600 0
DWIDTH 5 0
BBX 4 7 1 1
BITMAP
70
90
90
70
50
90
90
ENDCHAR
STARTCHAR CYRILLIC SMALL LETTER A
ENCODING 1072
SWIDTH 600 0
DWIDTH 5 0
BBX 4 5 1 1
BITMAP
60
10
70
90
70
ENDCHAR
STARTCHAR CYRILLIC SMALL LETTER BE
ENCODING 1073
SWIDTH 600 0
DWIDTH 5 0
BBX 4 7 1 1
BITMAP
70
80
A0
D0
90
90
60
ENDCHAR
STARTCHAR CYRILLIC SMALL LETTER VE
ENCODING 1074
SWIDTH 600 0
DWIDTH 5 0
BBX 4 5 1 1
BITMAP
E0
90
E0
90
E0
ENDCHAR
STARTCHAR CYRILLIC SMALL LETTER GHE
ENCODING 1075
SWIDTH 480 0
DWIDTH 4 0
BBX 3 5 1 1
BITMAP
E0
80
80
80
80
ENDCHAR
STARTCHAR CYRILLIC SMALL LETTER DE
ENCODING 1076
SWIDTH 600 0
DWIDTH 5 0
BBX 4 6 1 0
BITMAP
30
50
50
50
F0
90
ENDCHAR
STARTCHAR CYRILLIC SMALL LETTER IE
ENCODING 1077
SWIDTH 600 0
DWIDTH 5 0
BBX 4 5 1 1
BITMAP
60
90
F0
80
70
ENDCHAR
STARTCHAR CYRILLIC SMALL LETTER ZHE
ENCODING 1078
SWIDTH 720 0
DWIDTH 6 0
BBX 5 5 1 1
BITMAP
A8
A8
70
A8
A8
ENDCHAR
STARTCHAR CYRILLIC SMALL LETTER ZE
ENCODING 1079
SWIDTH 600 0
DWIDTH 5 0
BBX 4 5 1 1
BITMAP
E0
10
60
10
E0
ENDCHAR
STARTCHAR CYRILLIC SMALL LETTER I
ENCODING 1080
SWIDTH 600 0
DWIDTH 5 0
BBX 4 5 1 1
BITMAP
90
90
B0
D0
90
ENDCHAR
STARTCHAR CYRILLIC SMALL LETTER SHORT I
ENCODING 1081
SWIDTH 600 0
DWIDTH 5 0
BBX 4 7 1 1
BITMAP
50
20
00
90
B0
D0
90
ENDCHAR
STARTCHAR CYRILLIC SMALL LETTER KA
ENCODING 1082
SWIDTH 600 0
DWIDTH 5 0
BBX 4 5 1 1
BITMAP
90
A0
C0
A0
90
ENDCHAR
STARTCHAR CYRILLIC SMALL LETTER EL
ENCODING 1083
SWIDTH 600 0
DWIDTH 5 0
BBX 4 5 1 1
BITMAP
70
50
50
50
90
ENDCHAR
STARTCHAR CYRILLIC SMALL LETTER EM
ENCODING 1084
SWIDTH 720 0
DWIDTH 6 0
BBX 5 5 1 1
BITMAP
88
D8
D8
A8
A8
ENDCHAR
STARTCHAR CYRILLIC SMALL LETTER EN
ENCODING 1085
SWIDTH 600 0
DWIDTH 5 0
BBX 4 5 1 1
BITMAP
90
90
F0
90
90
ENDCHAR
STARTCHAR CYRILLIC SMALL LETTER O
ENCODING 1086
SWIDTH 600 0
DWIDTH 5 0
BBX 4 5 1 1
BITMAP
60
90
90
90
60
ENDCHAR
STARTCHAR CYRILLIC SMALL LETTER PE
ENCODING 1087
SWIDTH 600 0
DWIDTH 5 0
BBX 4 5 1 1
BITMAP
F0
90
90
90
90
ENDCHAR
STARTCHAR CYRILLIC SMALL LETTER ER
ENCODING 1088
SWIDTH 600 0
DWIDTH 5 0
BBX 4 6 1 0
BITMAP
E0
90
90
E0
80
80
ENDCHAR
STARTCHAR CYRILLIC SMALL LETTER ES
ENCODING 1089
SWIDTH 480 0
DWIDTH 4 0
BBX 3 5 1 1
BITMAP
60
80
80
80
60
ENDCHAR
STARTCHAR CYRILLIC SMALL LETTER TE
ENCODING 1090
SWIDTH 720 0
DWIDTH 6 0
BBX 5 5 1 1
BITMAP
F8
20
20
20
20
ENDCHAR
STARTCHAR CYRILLIC SMALL LETTER U
ENCODING 1091
SWIDTH 600 0
DWIDTH 5 0
BBX 4 6 1 0
BITMAP
90
90
90
70
10
60
ENDCHAR
STARTCHAR CYRILLIC SMALL LETTER EF
ENCODING 1092
SWIDTH 720 0
DWIDTH 6 0
BBX 5 8 1 0
BITMAP
20
20
70
A8
A8
A8
70
20
ENDCHAR
STARTCHAR CYRILLIC SMALL LETTER HA
ENCODING 1093
SWIDTH 480 0
DWIDTH 4 0
BBX 3 5 1 1
BITMAP
A0
A0
40
A0
A0
ENDCHAR
STARTCHAR CYRILLIC SMALL LETTER TSE
ENCODING 1094
SWIDTH 600 0
DWIDTH 5 0
BBX 4 6 1 0
BITMAP
90
90
90
90
F0
10
ENDCHAR
STARTCHAR CYRILLIC SMALL LETTER CHE
ENCODING 1095
SWIDTH 600 0
DWIDTH 5 0
BBX 4 5 1 1
BITMAP
90
90
70
10
10
ENDCHAR
STARTCHAR CYRILLIC SMALL LETTER SHA
ENCODING 1096
SWIDTH 720 0
DWIDTH 6 0
BBX 5 5 1 1
BITMAP
A8
A8
A8
A8
F8
ENDCHAR
STARTCHAR CYRILLIC SMALL LETTER SHCHA
ENCODING 1097
SWIDTH 720 0
DWIDTH 6 0
BBX 5 6 1 0
BITMAP
A8
A8
A8
A8
F8
08
ENDCHAR
STARTCHAR CYRILLIC SMALL LETTER HARD SIGN
ENCODING 1098
SWIDTH 600 0
DWIDTH 5 0
BBX 4 5 1 1
BITMAP
C0
60
50
50
60
ENDCHAR
STARTCHAR CYRILLIC SMALL LETTER YERU
ENCODING 1099
SWIDTH 720 0
DWIDTH 6 0
BBX 5 5 1 1
BITMAP
88
C8
A8
A8
C8
ENDCHAR
STARTCHAR CYRILLIC SMALL LETTER SOFT SIGN
ENCODING 1100
SWIDTH 480 0
DWIDTH 4 0
BBX 3 5 1 1
BITMAP
80
C0
A0
A0
C0
ENDCHAR
STARTCHAR CYRILLIC SMALL LETTER E
ENCODING 1101
SWIDTH 600 0
DWIDTH 5 0
BBX 4 5 1 1
BITMAP
E0
10
70
10
E0
ENDCHAR
STARTCHAR CYRILLIC SMALL LETTER YU
ENCODING 1102
SWIDTH 720 0
DWIDTH 6 0
BBX 5 5 1 1
BITMAP
90
A8
E8
A8
90
ENDCHAR
STARTCHAR CYRILLIC SMALL LETTER YA
ENCODING 1103
SWIDTH 600 0
DWIDTH 5 0
BBX 4 5 1 1
BITMAP
70
90
70
50
90
ENDCHAR
STARTCHAR CYRILLIC SMALL LETTER IE WITH GRAVE
ENCODING 1104
SWIDTH 600 0
DWIDTH 5 0
BBX 4 7 1 1
BITMAP
40
20
60
90
F0
80
70
ENDCHAR
STARTCHAR CYRILLIC SMALL LETTER IO
ENCODING 1105
SWIDTH 600 0
DWIDTH 5 0
BBX 4 7 1 1
BITMAP
90
00
60
90
F0
80
70
ENDCHAR
STARTCHAR CYRILLIC SMALL LETTER DJE
ENCODING 1106
SWIDTH 720 0
DWIDTH 6 0
BBX 5 8 1 0
BITMAP
40
E0
40
70
48
48
48
10
ENDCHAR
STARTCHAR CYRILLIC SMALL LETTER GJE
ENCODING 1107
SWIDTH 480 0
DWIDTH 4 0
BBX 3 7 1 1
BITMAP
20
40
E0
80
80
80
80
ENDCHAR
STARTCHAR CYRILLIC SMALL LETTER UKRAINIAN IE
ENCODING 1108
SWIDTH 600 0
DWIDTH 5 0
BBX 4 5 1 1
BITMAP
70
80
E0
80
70
ENDCHAR
STARTCHAR CYRILLIC SMALL LETTER DZE
ENCODING 1109
SWIDTH 600 0
DWIDTH 5 0
BBX 4 5 1 1
BITMAP
60
80
60
10
E0
ENDCHAR
STARTCHAR CYRILLIC SMALL LETTER BYELORUSSIAN-UKRAINIAN I
ENCODING 1110
SWIDTH 360 0
DWIDTH 3 0
BBX 2 7 1 1
BITMAP
80
00
80
80
80
80
40
ENDCHAR
STARTCHAR CYRILLIC SMALL LETTER YI
ENCODING 1111
SWIDTH 480 0
DWIDTH 4 0
BBX 3 7 1 1
BITMAP
A0
00
40
40
40
40
20
ENDCHAR
STARTCHAR CYRILLIC SMALL LETTER JE
ENCODING 1112
SWIDTH 480 0
DWIDTH 4 0
BBX 3 8 1 0
BITMAP
20
00
20
20
20
20
A0
40
ENDCHAR
STARTCHAR CYRILLIC SMALL LETTER LJE
ENCODING 1113
SWIDTH 840 0
DWIDTH 7 0
BBX 6 5 1 1
BITMAP
70
58
54
54
98
ENDCHAR
STARTCHAR CYRILLIC SMALL LETTER NJE
ENCODING 1114
SWIDTH 840 0
DWIDTH 7 0
BBX 6 5 1 1
BITMAP
90
98
F4
94
98
ENDCHAR
STARTCHAR CYRILLIC SMALL LETTER TSHE
ENCODING 1115
SWIDTH 720 0
DWIDTH 6 0
BBX 5 7 1 1
BITMAP
40
E0
40
70
48
48
48
ENDCHAR
STARTCHAR CYRILLIC SMALL LETTER KJE
ENCODING 1116
SWIDTH 600 0
DWIDTH 5 0
BBX 4 7 1 1
BITMAP
20
40
90
A0
C0
A0
90
ENDCHAR
STARTCHAR CYRILLIC SMALL LETTER I WITH GRAVE
ENCODING 1117
SWIDTH 600 0
DWIDTH 5 0
BBX 4 7 1 1
BITMAP
40
20
00
90
B0
D0
90
ENDCHAR
STARTCHAR CYRILLIC SMALL LETTER SHORT U
ENCODING 1118
SWIDTH 600 0
DWIDTH 5 0
BBX 4 8 1 0
BITMAP
50
20
90
90
90
70
10
60
ENDCHAR
STARTCHAR CYRILLIC SMALL LETTER DZHE
ENCODING 1119
SWIDTH 600 0
DWIDTH 5 0
BBX 4 6 1 0
BITMAP
90
90
90
90
F0
20
ENDCHAR
STARTCHAR EURO SIGN
ENCODING 8364
SWIDTH 600 0
DWIDTH 5 0
BBX 5 7 1 1
BITMAP
38
40
E0
40
E0
40
38
ENDCHAR
ENDFONT
